%TF.GenerationSoftware,KiCad,Pcbnew,8.0.4*%
%TF.CreationDate,2024-10-02T17:37:58-07:00*%
%TF.ProjectId,SYZYGY-RGMII-tester,53595a59-4759-42d5-9247-4d49492d7465,rev?*%
%TF.SameCoordinates,Original*%
%TF.FileFunction,Legend,Bot*%
%TF.FilePolarity,Positive*%
%FSLAX46Y46*%
G04 Gerber Fmt 4.6, Leading zero omitted, Abs format (unit mm)*
G04 Created by KiCad (PCBNEW 8.0.4) date 2024-10-02 17:37:58*
%MOMM*%
%LPD*%
G01*
G04 APERTURE LIST*
%ADD10C,0.100000*%
%ADD11C,0.200000*%
%ADD12C,0.150000*%
%ADD13C,0.120000*%
G04 APERTURE END LIST*
D10*
X115400000Y-97450000D02*
X113800000Y-97450000D01*
X115100000Y-98800000D02*
X114100000Y-98800000D01*
X114500000Y-99200000D02*
X114700000Y-99200000D01*
X105800000Y-73100000D02*
X104800000Y-73100000D01*
X105000000Y-73300000D02*
X105600000Y-73300000D01*
X105300000Y-72600000D02*
X105300000Y-73100000D01*
X114300000Y-99000000D02*
X114900000Y-99000000D01*
X114600000Y-98300000D02*
X114600000Y-98800000D01*
X105200000Y-73500000D02*
X105400000Y-73500000D01*
D11*
X118832780Y-91358898D02*
X119308971Y-91692231D01*
X118832780Y-91930326D02*
X119832780Y-91930326D01*
X119832780Y-91930326D02*
X119832780Y-91549374D01*
X119832780Y-91549374D02*
X119785161Y-91454136D01*
X119785161Y-91454136D02*
X119737542Y-91406517D01*
X119737542Y-91406517D02*
X119642304Y-91358898D01*
X119642304Y-91358898D02*
X119499447Y-91358898D01*
X119499447Y-91358898D02*
X119404209Y-91406517D01*
X119404209Y-91406517D02*
X119356590Y-91454136D01*
X119356590Y-91454136D02*
X119308971Y-91549374D01*
X119308971Y-91549374D02*
X119308971Y-91930326D01*
X119832780Y-91025564D02*
X118832780Y-90358898D01*
X119832780Y-90358898D02*
X118832780Y-91025564D01*
X118737542Y-90216041D02*
X118737542Y-89454136D01*
X118928019Y-88644612D02*
X118880400Y-88692231D01*
X118880400Y-88692231D02*
X118832780Y-88835088D01*
X118832780Y-88835088D02*
X118832780Y-88930326D01*
X118832780Y-88930326D02*
X118880400Y-89073183D01*
X118880400Y-89073183D02*
X118975638Y-89168421D01*
X118975638Y-89168421D02*
X119070876Y-89216040D01*
X119070876Y-89216040D02*
X119261352Y-89263659D01*
X119261352Y-89263659D02*
X119404209Y-89263659D01*
X119404209Y-89263659D02*
X119594685Y-89216040D01*
X119594685Y-89216040D02*
X119689923Y-89168421D01*
X119689923Y-89168421D02*
X119785161Y-89073183D01*
X119785161Y-89073183D02*
X119832780Y-88930326D01*
X119832780Y-88930326D02*
X119832780Y-88835088D01*
X119832780Y-88835088D02*
X119785161Y-88692231D01*
X119785161Y-88692231D02*
X119737542Y-88644612D01*
X118832780Y-87739850D02*
X118832780Y-88216040D01*
X118832780Y-88216040D02*
X119832780Y-88216040D01*
X118832780Y-87406516D02*
X119832780Y-87406516D01*
X118832780Y-86835088D02*
X119404209Y-87263659D01*
X119832780Y-86835088D02*
X119261352Y-87406516D01*
X126432780Y-93458898D02*
X126908971Y-93792231D01*
X126432780Y-94030326D02*
X127432780Y-94030326D01*
X127432780Y-94030326D02*
X127432780Y-93649374D01*
X127432780Y-93649374D02*
X127385161Y-93554136D01*
X127385161Y-93554136D02*
X127337542Y-93506517D01*
X127337542Y-93506517D02*
X127242304Y-93458898D01*
X127242304Y-93458898D02*
X127099447Y-93458898D01*
X127099447Y-93458898D02*
X127004209Y-93506517D01*
X127004209Y-93506517D02*
X126956590Y-93554136D01*
X126956590Y-93554136D02*
X126908971Y-93649374D01*
X126908971Y-93649374D02*
X126908971Y-94030326D01*
X127432780Y-93125564D02*
X126432780Y-92458898D01*
X127432780Y-92458898D02*
X126432780Y-93125564D01*
X126432780Y-92077945D02*
X127432780Y-92077945D01*
X127432780Y-92077945D02*
X127432780Y-91839850D01*
X127432780Y-91839850D02*
X127385161Y-91696993D01*
X127385161Y-91696993D02*
X127289923Y-91601755D01*
X127289923Y-91601755D02*
X127194685Y-91554136D01*
X127194685Y-91554136D02*
X127004209Y-91506517D01*
X127004209Y-91506517D02*
X126861352Y-91506517D01*
X126861352Y-91506517D02*
X126670876Y-91554136D01*
X126670876Y-91554136D02*
X126575638Y-91601755D01*
X126575638Y-91601755D02*
X126480400Y-91696993D01*
X126480400Y-91696993D02*
X126432780Y-91839850D01*
X126432780Y-91839850D02*
X126432780Y-92077945D01*
X127337542Y-91125564D02*
X127385161Y-91077945D01*
X127385161Y-91077945D02*
X127432780Y-90982707D01*
X127432780Y-90982707D02*
X127432780Y-90744612D01*
X127432780Y-90744612D02*
X127385161Y-90649374D01*
X127385161Y-90649374D02*
X127337542Y-90601755D01*
X127337542Y-90601755D02*
X127242304Y-90554136D01*
X127242304Y-90554136D02*
X127147066Y-90554136D01*
X127147066Y-90554136D02*
X127004209Y-90601755D01*
X127004209Y-90601755D02*
X126432780Y-91173183D01*
X126432780Y-91173183D02*
X126432780Y-90554136D01*
D12*
X111725125Y-90282057D02*
X111458458Y-91182057D01*
X111458458Y-91182057D02*
X111191792Y-90282057D01*
X110467982Y-91096342D02*
X110506078Y-91139200D01*
X110506078Y-91139200D02*
X110620363Y-91182057D01*
X110620363Y-91182057D02*
X110696554Y-91182057D01*
X110696554Y-91182057D02*
X110810840Y-91139200D01*
X110810840Y-91139200D02*
X110887030Y-91053485D01*
X110887030Y-91053485D02*
X110925125Y-90967771D01*
X110925125Y-90967771D02*
X110963221Y-90796342D01*
X110963221Y-90796342D02*
X110963221Y-90667771D01*
X110963221Y-90667771D02*
X110925125Y-90496342D01*
X110925125Y-90496342D02*
X110887030Y-90410628D01*
X110887030Y-90410628D02*
X110810840Y-90324914D01*
X110810840Y-90324914D02*
X110696554Y-90282057D01*
X110696554Y-90282057D02*
X110620363Y-90282057D01*
X110620363Y-90282057D02*
X110506078Y-90324914D01*
X110506078Y-90324914D02*
X110467982Y-90367771D01*
X109667982Y-91096342D02*
X109706078Y-91139200D01*
X109706078Y-91139200D02*
X109820363Y-91182057D01*
X109820363Y-91182057D02*
X109896554Y-91182057D01*
X109896554Y-91182057D02*
X110010840Y-91139200D01*
X110010840Y-91139200D02*
X110087030Y-91053485D01*
X110087030Y-91053485D02*
X110125125Y-90967771D01*
X110125125Y-90967771D02*
X110163221Y-90796342D01*
X110163221Y-90796342D02*
X110163221Y-90667771D01*
X110163221Y-90667771D02*
X110125125Y-90496342D01*
X110125125Y-90496342D02*
X110087030Y-90410628D01*
X110087030Y-90410628D02*
X110010840Y-90324914D01*
X110010840Y-90324914D02*
X109896554Y-90282057D01*
X109896554Y-90282057D02*
X109820363Y-90282057D01*
X109820363Y-90282057D02*
X109706078Y-90324914D01*
X109706078Y-90324914D02*
X109667982Y-90367771D01*
D11*
X114922054Y-87567219D02*
X114350626Y-87567219D01*
X114636340Y-88567219D02*
X114636340Y-87567219D01*
X114112530Y-87567219D02*
X113445864Y-88567219D01*
X113445864Y-87567219D02*
X114112530Y-88567219D01*
X113303007Y-88662457D02*
X112541102Y-88662457D01*
X111731578Y-88471980D02*
X111779197Y-88519600D01*
X111779197Y-88519600D02*
X111922054Y-88567219D01*
X111922054Y-88567219D02*
X112017292Y-88567219D01*
X112017292Y-88567219D02*
X112160149Y-88519600D01*
X112160149Y-88519600D02*
X112255387Y-88424361D01*
X112255387Y-88424361D02*
X112303006Y-88329123D01*
X112303006Y-88329123D02*
X112350625Y-88138647D01*
X112350625Y-88138647D02*
X112350625Y-87995790D01*
X112350625Y-87995790D02*
X112303006Y-87805314D01*
X112303006Y-87805314D02*
X112255387Y-87710076D01*
X112255387Y-87710076D02*
X112160149Y-87614838D01*
X112160149Y-87614838D02*
X112017292Y-87567219D01*
X112017292Y-87567219D02*
X111922054Y-87567219D01*
X111922054Y-87567219D02*
X111779197Y-87614838D01*
X111779197Y-87614838D02*
X111731578Y-87662457D01*
X110826816Y-88567219D02*
X111303006Y-88567219D01*
X111303006Y-88567219D02*
X111303006Y-87567219D01*
X110493482Y-88567219D02*
X110493482Y-87567219D01*
X109922054Y-88567219D02*
X110350625Y-87995790D01*
X109922054Y-87567219D02*
X110493482Y-88138647D01*
X113303006Y-79967219D02*
X112731578Y-79967219D01*
X113017292Y-80967219D02*
X113017292Y-79967219D01*
X112493482Y-79967219D02*
X111826816Y-80967219D01*
X111826816Y-79967219D02*
X112493482Y-80967219D01*
X111445863Y-80967219D02*
X111445863Y-79967219D01*
X111445863Y-79967219D02*
X111207768Y-79967219D01*
X111207768Y-79967219D02*
X111064911Y-80014838D01*
X111064911Y-80014838D02*
X110969673Y-80110076D01*
X110969673Y-80110076D02*
X110922054Y-80205314D01*
X110922054Y-80205314D02*
X110874435Y-80395790D01*
X110874435Y-80395790D02*
X110874435Y-80538647D01*
X110874435Y-80538647D02*
X110922054Y-80729123D01*
X110922054Y-80729123D02*
X110969673Y-80824361D01*
X110969673Y-80824361D02*
X111064911Y-80919600D01*
X111064911Y-80919600D02*
X111207768Y-80967219D01*
X111207768Y-80967219D02*
X111445863Y-80967219D01*
X109922054Y-80967219D02*
X110493482Y-80967219D01*
X110207768Y-80967219D02*
X110207768Y-79967219D01*
X110207768Y-79967219D02*
X110303006Y-80110076D01*
X110303006Y-80110076D02*
X110398244Y-80205314D01*
X110398244Y-80205314D02*
X110493482Y-80252933D01*
X116332780Y-93458898D02*
X116808971Y-93792231D01*
X116332780Y-94030326D02*
X117332780Y-94030326D01*
X117332780Y-94030326D02*
X117332780Y-93649374D01*
X117332780Y-93649374D02*
X117285161Y-93554136D01*
X117285161Y-93554136D02*
X117237542Y-93506517D01*
X117237542Y-93506517D02*
X117142304Y-93458898D01*
X117142304Y-93458898D02*
X116999447Y-93458898D01*
X116999447Y-93458898D02*
X116904209Y-93506517D01*
X116904209Y-93506517D02*
X116856590Y-93554136D01*
X116856590Y-93554136D02*
X116808971Y-93649374D01*
X116808971Y-93649374D02*
X116808971Y-94030326D01*
X117332780Y-93125564D02*
X116332780Y-92458898D01*
X117332780Y-92458898D02*
X116332780Y-93125564D01*
X116332780Y-92077945D02*
X117332780Y-92077945D01*
X117332780Y-92077945D02*
X117332780Y-91839850D01*
X117332780Y-91839850D02*
X117285161Y-91696993D01*
X117285161Y-91696993D02*
X117189923Y-91601755D01*
X117189923Y-91601755D02*
X117094685Y-91554136D01*
X117094685Y-91554136D02*
X116904209Y-91506517D01*
X116904209Y-91506517D02*
X116761352Y-91506517D01*
X116761352Y-91506517D02*
X116570876Y-91554136D01*
X116570876Y-91554136D02*
X116475638Y-91601755D01*
X116475638Y-91601755D02*
X116380400Y-91696993D01*
X116380400Y-91696993D02*
X116332780Y-91839850D01*
X116332780Y-91839850D02*
X116332780Y-92077945D01*
X117332780Y-90887469D02*
X117332780Y-90792231D01*
X117332780Y-90792231D02*
X117285161Y-90696993D01*
X117285161Y-90696993D02*
X117237542Y-90649374D01*
X117237542Y-90649374D02*
X117142304Y-90601755D01*
X117142304Y-90601755D02*
X116951828Y-90554136D01*
X116951828Y-90554136D02*
X116713733Y-90554136D01*
X116713733Y-90554136D02*
X116523257Y-90601755D01*
X116523257Y-90601755D02*
X116428019Y-90649374D01*
X116428019Y-90649374D02*
X116380400Y-90696993D01*
X116380400Y-90696993D02*
X116332780Y-90792231D01*
X116332780Y-90792231D02*
X116332780Y-90887469D01*
X116332780Y-90887469D02*
X116380400Y-90982707D01*
X116380400Y-90982707D02*
X116428019Y-91030326D01*
X116428019Y-91030326D02*
X116523257Y-91077945D01*
X116523257Y-91077945D02*
X116713733Y-91125564D01*
X116713733Y-91125564D02*
X116951828Y-91125564D01*
X116951828Y-91125564D02*
X117142304Y-91077945D01*
X117142304Y-91077945D02*
X117237542Y-91030326D01*
X117237542Y-91030326D02*
X117285161Y-90982707D01*
X117285161Y-90982707D02*
X117332780Y-90887469D01*
D12*
X108279887Y-93332057D02*
X108660839Y-93332057D01*
X108660839Y-93332057D02*
X108660839Y-92432057D01*
X107898935Y-93332057D02*
X107975125Y-93289200D01*
X107975125Y-93289200D02*
X108013220Y-93246342D01*
X108013220Y-93246342D02*
X108051316Y-93160628D01*
X108051316Y-93160628D02*
X108051316Y-92903485D01*
X108051316Y-92903485D02*
X108013220Y-92817771D01*
X108013220Y-92817771D02*
X107975125Y-92774914D01*
X107975125Y-92774914D02*
X107898935Y-92732057D01*
X107898935Y-92732057D02*
X107784649Y-92732057D01*
X107784649Y-92732057D02*
X107708458Y-92774914D01*
X107708458Y-92774914D02*
X107670363Y-92817771D01*
X107670363Y-92817771D02*
X107632268Y-92903485D01*
X107632268Y-92903485D02*
X107632268Y-93160628D01*
X107632268Y-93160628D02*
X107670363Y-93246342D01*
X107670363Y-93246342D02*
X107708458Y-93289200D01*
X107708458Y-93289200D02*
X107784649Y-93332057D01*
X107784649Y-93332057D02*
X107898935Y-93332057D01*
X106489410Y-93632057D02*
X106489410Y-92346342D01*
X105308457Y-93332057D02*
X105308457Y-92432057D01*
X105308457Y-92860628D02*
X104851314Y-92860628D01*
X104851314Y-93332057D02*
X104851314Y-92432057D01*
X104470362Y-93332057D02*
X104470362Y-92732057D01*
X104470362Y-92432057D02*
X104508458Y-92474914D01*
X104508458Y-92474914D02*
X104470362Y-92517771D01*
X104470362Y-92517771D02*
X104432267Y-92474914D01*
X104432267Y-92474914D02*
X104470362Y-92432057D01*
X104470362Y-92432057D02*
X104470362Y-92517771D01*
D11*
X113303006Y-77467219D02*
X112731578Y-77467219D01*
X113017292Y-78467219D02*
X113017292Y-77467219D01*
X112493482Y-77467219D02*
X111826816Y-78467219D01*
X111826816Y-77467219D02*
X112493482Y-78467219D01*
X111445863Y-78467219D02*
X111445863Y-77467219D01*
X111445863Y-77467219D02*
X111207768Y-77467219D01*
X111207768Y-77467219D02*
X111064911Y-77514838D01*
X111064911Y-77514838D02*
X110969673Y-77610076D01*
X110969673Y-77610076D02*
X110922054Y-77705314D01*
X110922054Y-77705314D02*
X110874435Y-77895790D01*
X110874435Y-77895790D02*
X110874435Y-78038647D01*
X110874435Y-78038647D02*
X110922054Y-78229123D01*
X110922054Y-78229123D02*
X110969673Y-78324361D01*
X110969673Y-78324361D02*
X111064911Y-78419600D01*
X111064911Y-78419600D02*
X111207768Y-78467219D01*
X111207768Y-78467219D02*
X111445863Y-78467219D01*
X110493482Y-77562457D02*
X110445863Y-77514838D01*
X110445863Y-77514838D02*
X110350625Y-77467219D01*
X110350625Y-77467219D02*
X110112530Y-77467219D01*
X110112530Y-77467219D02*
X110017292Y-77514838D01*
X110017292Y-77514838D02*
X109969673Y-77562457D01*
X109969673Y-77562457D02*
X109922054Y-77657695D01*
X109922054Y-77657695D02*
X109922054Y-77752933D01*
X109922054Y-77752933D02*
X109969673Y-77895790D01*
X109969673Y-77895790D02*
X110541101Y-78467219D01*
X110541101Y-78467219D02*
X109922054Y-78467219D01*
X121432780Y-93458898D02*
X121908971Y-93792231D01*
X121432780Y-94030326D02*
X122432780Y-94030326D01*
X122432780Y-94030326D02*
X122432780Y-93649374D01*
X122432780Y-93649374D02*
X122385161Y-93554136D01*
X122385161Y-93554136D02*
X122337542Y-93506517D01*
X122337542Y-93506517D02*
X122242304Y-93458898D01*
X122242304Y-93458898D02*
X122099447Y-93458898D01*
X122099447Y-93458898D02*
X122004209Y-93506517D01*
X122004209Y-93506517D02*
X121956590Y-93554136D01*
X121956590Y-93554136D02*
X121908971Y-93649374D01*
X121908971Y-93649374D02*
X121908971Y-94030326D01*
X122432780Y-93125564D02*
X121432780Y-92458898D01*
X122432780Y-92458898D02*
X121432780Y-93125564D01*
X121337542Y-92316041D02*
X121337542Y-91554136D01*
X121528019Y-90744612D02*
X121480400Y-90792231D01*
X121480400Y-90792231D02*
X121432780Y-90935088D01*
X121432780Y-90935088D02*
X121432780Y-91030326D01*
X121432780Y-91030326D02*
X121480400Y-91173183D01*
X121480400Y-91173183D02*
X121575638Y-91268421D01*
X121575638Y-91268421D02*
X121670876Y-91316040D01*
X121670876Y-91316040D02*
X121861352Y-91363659D01*
X121861352Y-91363659D02*
X122004209Y-91363659D01*
X122004209Y-91363659D02*
X122194685Y-91316040D01*
X122194685Y-91316040D02*
X122289923Y-91268421D01*
X122289923Y-91268421D02*
X122385161Y-91173183D01*
X122385161Y-91173183D02*
X122432780Y-91030326D01*
X122432780Y-91030326D02*
X122432780Y-90935088D01*
X122432780Y-90935088D02*
X122385161Y-90792231D01*
X122385161Y-90792231D02*
X122337542Y-90744612D01*
X122432780Y-90458897D02*
X122432780Y-89887469D01*
X121432780Y-90173183D02*
X122432780Y-90173183D01*
X121432780Y-89077945D02*
X121432780Y-89554135D01*
X121432780Y-89554135D02*
X122432780Y-89554135D01*
X129032780Y-93458898D02*
X129508971Y-93792231D01*
X129032780Y-94030326D02*
X130032780Y-94030326D01*
X130032780Y-94030326D02*
X130032780Y-93649374D01*
X130032780Y-93649374D02*
X129985161Y-93554136D01*
X129985161Y-93554136D02*
X129937542Y-93506517D01*
X129937542Y-93506517D02*
X129842304Y-93458898D01*
X129842304Y-93458898D02*
X129699447Y-93458898D01*
X129699447Y-93458898D02*
X129604209Y-93506517D01*
X129604209Y-93506517D02*
X129556590Y-93554136D01*
X129556590Y-93554136D02*
X129508971Y-93649374D01*
X129508971Y-93649374D02*
X129508971Y-94030326D01*
X130032780Y-93125564D02*
X129032780Y-92458898D01*
X130032780Y-92458898D02*
X129032780Y-93125564D01*
X129032780Y-92077945D02*
X130032780Y-92077945D01*
X130032780Y-92077945D02*
X130032780Y-91839850D01*
X130032780Y-91839850D02*
X129985161Y-91696993D01*
X129985161Y-91696993D02*
X129889923Y-91601755D01*
X129889923Y-91601755D02*
X129794685Y-91554136D01*
X129794685Y-91554136D02*
X129604209Y-91506517D01*
X129604209Y-91506517D02*
X129461352Y-91506517D01*
X129461352Y-91506517D02*
X129270876Y-91554136D01*
X129270876Y-91554136D02*
X129175638Y-91601755D01*
X129175638Y-91601755D02*
X129080400Y-91696993D01*
X129080400Y-91696993D02*
X129032780Y-91839850D01*
X129032780Y-91839850D02*
X129032780Y-92077945D01*
X129032780Y-90554136D02*
X129032780Y-91125564D01*
X129032780Y-90839850D02*
X130032780Y-90839850D01*
X130032780Y-90839850D02*
X129889923Y-90935088D01*
X129889923Y-90935088D02*
X129794685Y-91030326D01*
X129794685Y-91030326D02*
X129747066Y-91125564D01*
X123932780Y-93458898D02*
X124408971Y-93792231D01*
X123932780Y-94030326D02*
X124932780Y-94030326D01*
X124932780Y-94030326D02*
X124932780Y-93649374D01*
X124932780Y-93649374D02*
X124885161Y-93554136D01*
X124885161Y-93554136D02*
X124837542Y-93506517D01*
X124837542Y-93506517D02*
X124742304Y-93458898D01*
X124742304Y-93458898D02*
X124599447Y-93458898D01*
X124599447Y-93458898D02*
X124504209Y-93506517D01*
X124504209Y-93506517D02*
X124456590Y-93554136D01*
X124456590Y-93554136D02*
X124408971Y-93649374D01*
X124408971Y-93649374D02*
X124408971Y-94030326D01*
X124932780Y-93125564D02*
X123932780Y-92458898D01*
X124932780Y-92458898D02*
X123932780Y-93125564D01*
X123932780Y-92077945D02*
X124932780Y-92077945D01*
X124932780Y-92077945D02*
X124932780Y-91839850D01*
X124932780Y-91839850D02*
X124885161Y-91696993D01*
X124885161Y-91696993D02*
X124789923Y-91601755D01*
X124789923Y-91601755D02*
X124694685Y-91554136D01*
X124694685Y-91554136D02*
X124504209Y-91506517D01*
X124504209Y-91506517D02*
X124361352Y-91506517D01*
X124361352Y-91506517D02*
X124170876Y-91554136D01*
X124170876Y-91554136D02*
X124075638Y-91601755D01*
X124075638Y-91601755D02*
X123980400Y-91696993D01*
X123980400Y-91696993D02*
X123932780Y-91839850D01*
X123932780Y-91839850D02*
X123932780Y-92077945D01*
X124932780Y-91173183D02*
X124932780Y-90554136D01*
X124932780Y-90554136D02*
X124551828Y-90887469D01*
X124551828Y-90887469D02*
X124551828Y-90744612D01*
X124551828Y-90744612D02*
X124504209Y-90649374D01*
X124504209Y-90649374D02*
X124456590Y-90601755D01*
X124456590Y-90601755D02*
X124361352Y-90554136D01*
X124361352Y-90554136D02*
X124123257Y-90554136D01*
X124123257Y-90554136D02*
X124028019Y-90601755D01*
X124028019Y-90601755D02*
X123980400Y-90649374D01*
X123980400Y-90649374D02*
X123932780Y-90744612D01*
X123932780Y-90744612D02*
X123932780Y-91030326D01*
X123932780Y-91030326D02*
X123980400Y-91125564D01*
X123980400Y-91125564D02*
X124028019Y-91173183D01*
X114683959Y-85067219D02*
X114112531Y-85067219D01*
X114398245Y-86067219D02*
X114398245Y-85067219D01*
X113874435Y-85067219D02*
X113207769Y-86067219D01*
X113207769Y-85067219D02*
X113874435Y-86067219D01*
X113064912Y-86162457D02*
X112303007Y-86162457D01*
X111493483Y-85971980D02*
X111541102Y-86019600D01*
X111541102Y-86019600D02*
X111683959Y-86067219D01*
X111683959Y-86067219D02*
X111779197Y-86067219D01*
X111779197Y-86067219D02*
X111922054Y-86019600D01*
X111922054Y-86019600D02*
X112017292Y-85924361D01*
X112017292Y-85924361D02*
X112064911Y-85829123D01*
X112064911Y-85829123D02*
X112112530Y-85638647D01*
X112112530Y-85638647D02*
X112112530Y-85495790D01*
X112112530Y-85495790D02*
X112064911Y-85305314D01*
X112064911Y-85305314D02*
X112017292Y-85210076D01*
X112017292Y-85210076D02*
X111922054Y-85114838D01*
X111922054Y-85114838D02*
X111779197Y-85067219D01*
X111779197Y-85067219D02*
X111683959Y-85067219D01*
X111683959Y-85067219D02*
X111541102Y-85114838D01*
X111541102Y-85114838D02*
X111493483Y-85162457D01*
X111207768Y-85067219D02*
X110636340Y-85067219D01*
X110922054Y-86067219D02*
X110922054Y-85067219D01*
X109826816Y-86067219D02*
X110303006Y-86067219D01*
X110303006Y-86067219D02*
X110303006Y-85067219D01*
X129058898Y-78737387D02*
X129392231Y-78261196D01*
X129630326Y-78737387D02*
X129630326Y-77737387D01*
X129630326Y-77737387D02*
X129249374Y-77737387D01*
X129249374Y-77737387D02*
X129154136Y-77785006D01*
X129154136Y-77785006D02*
X129106517Y-77832625D01*
X129106517Y-77832625D02*
X129058898Y-77927863D01*
X129058898Y-77927863D02*
X129058898Y-78070720D01*
X129058898Y-78070720D02*
X129106517Y-78165958D01*
X129106517Y-78165958D02*
X129154136Y-78213577D01*
X129154136Y-78213577D02*
X129249374Y-78261196D01*
X129249374Y-78261196D02*
X129630326Y-78261196D01*
X128106517Y-77785006D02*
X128201755Y-77737387D01*
X128201755Y-77737387D02*
X128344612Y-77737387D01*
X128344612Y-77737387D02*
X128487469Y-77785006D01*
X128487469Y-77785006D02*
X128582707Y-77880244D01*
X128582707Y-77880244D02*
X128630326Y-77975482D01*
X128630326Y-77975482D02*
X128677945Y-78165958D01*
X128677945Y-78165958D02*
X128677945Y-78308815D01*
X128677945Y-78308815D02*
X128630326Y-78499291D01*
X128630326Y-78499291D02*
X128582707Y-78594529D01*
X128582707Y-78594529D02*
X128487469Y-78689768D01*
X128487469Y-78689768D02*
X128344612Y-78737387D01*
X128344612Y-78737387D02*
X128249374Y-78737387D01*
X128249374Y-78737387D02*
X128106517Y-78689768D01*
X128106517Y-78689768D02*
X128058898Y-78642148D01*
X128058898Y-78642148D02*
X128058898Y-78308815D01*
X128058898Y-78308815D02*
X128249374Y-78308815D01*
X127630326Y-78737387D02*
X127630326Y-77737387D01*
X127630326Y-77737387D02*
X127296993Y-78451672D01*
X127296993Y-78451672D02*
X126963660Y-77737387D01*
X126963660Y-77737387D02*
X126963660Y-78737387D01*
X126487469Y-78737387D02*
X126487469Y-77737387D01*
X126011279Y-78737387D02*
X126011279Y-77737387D01*
X124630327Y-78737387D02*
X124725565Y-78689768D01*
X124725565Y-78689768D02*
X124773184Y-78642148D01*
X124773184Y-78642148D02*
X124820803Y-78546910D01*
X124820803Y-78546910D02*
X124820803Y-78261196D01*
X124820803Y-78261196D02*
X124773184Y-78165958D01*
X124773184Y-78165958D02*
X124725565Y-78118339D01*
X124725565Y-78118339D02*
X124630327Y-78070720D01*
X124630327Y-78070720D02*
X124487470Y-78070720D01*
X124487470Y-78070720D02*
X124392232Y-78118339D01*
X124392232Y-78118339D02*
X124344613Y-78165958D01*
X124344613Y-78165958D02*
X124296994Y-78261196D01*
X124296994Y-78261196D02*
X124296994Y-78546910D01*
X124296994Y-78546910D02*
X124344613Y-78642148D01*
X124344613Y-78642148D02*
X124392232Y-78689768D01*
X124392232Y-78689768D02*
X124487470Y-78737387D01*
X124487470Y-78737387D02*
X124630327Y-78737387D01*
X123963660Y-78070720D02*
X123725565Y-78737387D01*
X123725565Y-78737387D02*
X123487470Y-78070720D01*
X122725565Y-78689768D02*
X122820803Y-78737387D01*
X122820803Y-78737387D02*
X123011279Y-78737387D01*
X123011279Y-78737387D02*
X123106517Y-78689768D01*
X123106517Y-78689768D02*
X123154136Y-78594529D01*
X123154136Y-78594529D02*
X123154136Y-78213577D01*
X123154136Y-78213577D02*
X123106517Y-78118339D01*
X123106517Y-78118339D02*
X123011279Y-78070720D01*
X123011279Y-78070720D02*
X122820803Y-78070720D01*
X122820803Y-78070720D02*
X122725565Y-78118339D01*
X122725565Y-78118339D02*
X122677946Y-78213577D01*
X122677946Y-78213577D02*
X122677946Y-78308815D01*
X122677946Y-78308815D02*
X123154136Y-78404053D01*
X122249374Y-78737387D02*
X122249374Y-78070720D01*
X122249374Y-78261196D02*
X122201755Y-78165958D01*
X122201755Y-78165958D02*
X122154136Y-78118339D01*
X122154136Y-78118339D02*
X122058898Y-78070720D01*
X122058898Y-78070720D02*
X121963660Y-78070720D01*
X120916040Y-78689768D02*
X120773183Y-78737387D01*
X120773183Y-78737387D02*
X120535088Y-78737387D01*
X120535088Y-78737387D02*
X120439850Y-78689768D01*
X120439850Y-78689768D02*
X120392231Y-78642148D01*
X120392231Y-78642148D02*
X120344612Y-78546910D01*
X120344612Y-78546910D02*
X120344612Y-78451672D01*
X120344612Y-78451672D02*
X120392231Y-78356434D01*
X120392231Y-78356434D02*
X120439850Y-78308815D01*
X120439850Y-78308815D02*
X120535088Y-78261196D01*
X120535088Y-78261196D02*
X120725564Y-78213577D01*
X120725564Y-78213577D02*
X120820802Y-78165958D01*
X120820802Y-78165958D02*
X120868421Y-78118339D01*
X120868421Y-78118339D02*
X120916040Y-78023101D01*
X120916040Y-78023101D02*
X120916040Y-77927863D01*
X120916040Y-77927863D02*
X120868421Y-77832625D01*
X120868421Y-77832625D02*
X120820802Y-77785006D01*
X120820802Y-77785006D02*
X120725564Y-77737387D01*
X120725564Y-77737387D02*
X120487469Y-77737387D01*
X120487469Y-77737387D02*
X120344612Y-77785006D01*
X119725564Y-78261196D02*
X119725564Y-78737387D01*
X120058897Y-77737387D02*
X119725564Y-78261196D01*
X119725564Y-78261196D02*
X119392231Y-77737387D01*
X119154135Y-77737387D02*
X118487469Y-77737387D01*
X118487469Y-77737387D02*
X119154135Y-78737387D01*
X119154135Y-78737387D02*
X118487469Y-78737387D01*
X117916040Y-78261196D02*
X117916040Y-78737387D01*
X118249373Y-77737387D02*
X117916040Y-78261196D01*
X117916040Y-78261196D02*
X117582707Y-77737387D01*
X116725564Y-77785006D02*
X116820802Y-77737387D01*
X116820802Y-77737387D02*
X116963659Y-77737387D01*
X116963659Y-77737387D02*
X117106516Y-77785006D01*
X117106516Y-77785006D02*
X117201754Y-77880244D01*
X117201754Y-77880244D02*
X117249373Y-77975482D01*
X117249373Y-77975482D02*
X117296992Y-78165958D01*
X117296992Y-78165958D02*
X117296992Y-78308815D01*
X117296992Y-78308815D02*
X117249373Y-78499291D01*
X117249373Y-78499291D02*
X117201754Y-78594529D01*
X117201754Y-78594529D02*
X117106516Y-78689768D01*
X117106516Y-78689768D02*
X116963659Y-78737387D01*
X116963659Y-78737387D02*
X116868421Y-78737387D01*
X116868421Y-78737387D02*
X116725564Y-78689768D01*
X116725564Y-78689768D02*
X116677945Y-78642148D01*
X116677945Y-78642148D02*
X116677945Y-78308815D01*
X116677945Y-78308815D02*
X116868421Y-78308815D01*
X116058897Y-78261196D02*
X116058897Y-78737387D01*
X116392230Y-77737387D02*
X116058897Y-78261196D01*
X116058897Y-78261196D02*
X115725564Y-77737387D01*
X129773183Y-79347331D02*
X129201755Y-79347331D01*
X129487469Y-80347331D02*
X129487469Y-79347331D01*
X128487469Y-80299712D02*
X128582707Y-80347331D01*
X128582707Y-80347331D02*
X128773183Y-80347331D01*
X128773183Y-80347331D02*
X128868421Y-80299712D01*
X128868421Y-80299712D02*
X128916040Y-80204473D01*
X128916040Y-80204473D02*
X128916040Y-79823521D01*
X128916040Y-79823521D02*
X128868421Y-79728283D01*
X128868421Y-79728283D02*
X128773183Y-79680664D01*
X128773183Y-79680664D02*
X128582707Y-79680664D01*
X128582707Y-79680664D02*
X128487469Y-79728283D01*
X128487469Y-79728283D02*
X128439850Y-79823521D01*
X128439850Y-79823521D02*
X128439850Y-79918759D01*
X128439850Y-79918759D02*
X128916040Y-80013997D01*
X128058897Y-80299712D02*
X127963659Y-80347331D01*
X127963659Y-80347331D02*
X127773183Y-80347331D01*
X127773183Y-80347331D02*
X127677945Y-80299712D01*
X127677945Y-80299712D02*
X127630326Y-80204473D01*
X127630326Y-80204473D02*
X127630326Y-80156854D01*
X127630326Y-80156854D02*
X127677945Y-80061616D01*
X127677945Y-80061616D02*
X127773183Y-80013997D01*
X127773183Y-80013997D02*
X127916040Y-80013997D01*
X127916040Y-80013997D02*
X128011278Y-79966378D01*
X128011278Y-79966378D02*
X128058897Y-79871140D01*
X128058897Y-79871140D02*
X128058897Y-79823521D01*
X128058897Y-79823521D02*
X128011278Y-79728283D01*
X128011278Y-79728283D02*
X127916040Y-79680664D01*
X127916040Y-79680664D02*
X127773183Y-79680664D01*
X127773183Y-79680664D02*
X127677945Y-79728283D01*
X127344611Y-79680664D02*
X126963659Y-79680664D01*
X127201754Y-79347331D02*
X127201754Y-80204473D01*
X127201754Y-80204473D02*
X127154135Y-80299712D01*
X127154135Y-80299712D02*
X127058897Y-80347331D01*
X127058897Y-80347331D02*
X126963659Y-80347331D01*
X125535087Y-79823521D02*
X125392230Y-79871140D01*
X125392230Y-79871140D02*
X125344611Y-79918759D01*
X125344611Y-79918759D02*
X125296992Y-80013997D01*
X125296992Y-80013997D02*
X125296992Y-80156854D01*
X125296992Y-80156854D02*
X125344611Y-80252092D01*
X125344611Y-80252092D02*
X125392230Y-80299712D01*
X125392230Y-80299712D02*
X125487468Y-80347331D01*
X125487468Y-80347331D02*
X125868420Y-80347331D01*
X125868420Y-80347331D02*
X125868420Y-79347331D01*
X125868420Y-79347331D02*
X125535087Y-79347331D01*
X125535087Y-79347331D02*
X125439849Y-79394950D01*
X125439849Y-79394950D02*
X125392230Y-79442569D01*
X125392230Y-79442569D02*
X125344611Y-79537807D01*
X125344611Y-79537807D02*
X125344611Y-79633045D01*
X125344611Y-79633045D02*
X125392230Y-79728283D01*
X125392230Y-79728283D02*
X125439849Y-79775902D01*
X125439849Y-79775902D02*
X125535087Y-79823521D01*
X125535087Y-79823521D02*
X125868420Y-79823521D01*
X124725563Y-80347331D02*
X124820801Y-80299712D01*
X124820801Y-80299712D02*
X124868420Y-80252092D01*
X124868420Y-80252092D02*
X124916039Y-80156854D01*
X124916039Y-80156854D02*
X124916039Y-79871140D01*
X124916039Y-79871140D02*
X124868420Y-79775902D01*
X124868420Y-79775902D02*
X124820801Y-79728283D01*
X124820801Y-79728283D02*
X124725563Y-79680664D01*
X124725563Y-79680664D02*
X124582706Y-79680664D01*
X124582706Y-79680664D02*
X124487468Y-79728283D01*
X124487468Y-79728283D02*
X124439849Y-79775902D01*
X124439849Y-79775902D02*
X124392230Y-79871140D01*
X124392230Y-79871140D02*
X124392230Y-80156854D01*
X124392230Y-80156854D02*
X124439849Y-80252092D01*
X124439849Y-80252092D02*
X124487468Y-80299712D01*
X124487468Y-80299712D02*
X124582706Y-80347331D01*
X124582706Y-80347331D02*
X124725563Y-80347331D01*
X123535087Y-80347331D02*
X123535087Y-79823521D01*
X123535087Y-79823521D02*
X123582706Y-79728283D01*
X123582706Y-79728283D02*
X123677944Y-79680664D01*
X123677944Y-79680664D02*
X123868420Y-79680664D01*
X123868420Y-79680664D02*
X123963658Y-79728283D01*
X123535087Y-80299712D02*
X123630325Y-80347331D01*
X123630325Y-80347331D02*
X123868420Y-80347331D01*
X123868420Y-80347331D02*
X123963658Y-80299712D01*
X123963658Y-80299712D02*
X124011277Y-80204473D01*
X124011277Y-80204473D02*
X124011277Y-80109235D01*
X124011277Y-80109235D02*
X123963658Y-80013997D01*
X123963658Y-80013997D02*
X123868420Y-79966378D01*
X123868420Y-79966378D02*
X123630325Y-79966378D01*
X123630325Y-79966378D02*
X123535087Y-79918759D01*
X123058896Y-80347331D02*
X123058896Y-79680664D01*
X123058896Y-79871140D02*
X123011277Y-79775902D01*
X123011277Y-79775902D02*
X122963658Y-79728283D01*
X122963658Y-79728283D02*
X122868420Y-79680664D01*
X122868420Y-79680664D02*
X122773182Y-79680664D01*
X122011277Y-80347331D02*
X122011277Y-79347331D01*
X122011277Y-80299712D02*
X122106515Y-80347331D01*
X122106515Y-80347331D02*
X122296991Y-80347331D01*
X122296991Y-80347331D02*
X122392229Y-80299712D01*
X122392229Y-80299712D02*
X122439848Y-80252092D01*
X122439848Y-80252092D02*
X122487467Y-80156854D01*
X122487467Y-80156854D02*
X122487467Y-79871140D01*
X122487467Y-79871140D02*
X122439848Y-79775902D01*
X122439848Y-79775902D02*
X122392229Y-79728283D01*
X122392229Y-79728283D02*
X122296991Y-79680664D01*
X122296991Y-79680664D02*
X122106515Y-79680664D01*
X122106515Y-79680664D02*
X122011277Y-79728283D01*
X129011279Y-81481084D02*
X129058898Y-81433465D01*
X129058898Y-81433465D02*
X129154136Y-81385846D01*
X129154136Y-81385846D02*
X129249374Y-81385846D01*
X129249374Y-81385846D02*
X129344612Y-81433465D01*
X129344612Y-81433465D02*
X129392231Y-81481084D01*
X129392231Y-81481084D02*
X129439850Y-81576322D01*
X129439850Y-81576322D02*
X129439850Y-81671560D01*
X129439850Y-81671560D02*
X129392231Y-81766798D01*
X129392231Y-81766798D02*
X129344612Y-81814417D01*
X129344612Y-81814417D02*
X129249374Y-81862036D01*
X129249374Y-81862036D02*
X129154136Y-81862036D01*
X129154136Y-81862036D02*
X129058898Y-81814417D01*
X129058898Y-81814417D02*
X129011279Y-81766798D01*
X129011279Y-81385846D02*
X129011279Y-81766798D01*
X129011279Y-81766798D02*
X128963660Y-81814417D01*
X128963660Y-81814417D02*
X128916041Y-81814417D01*
X128916041Y-81814417D02*
X128820802Y-81766798D01*
X128820802Y-81766798D02*
X128773183Y-81671560D01*
X128773183Y-81671560D02*
X128773183Y-81433465D01*
X128773183Y-81433465D02*
X128868422Y-81290608D01*
X128868422Y-81290608D02*
X129011279Y-81195370D01*
X129011279Y-81195370D02*
X129201755Y-81147751D01*
X129201755Y-81147751D02*
X129392231Y-81195370D01*
X129392231Y-81195370D02*
X129535088Y-81290608D01*
X129535088Y-81290608D02*
X129630326Y-81433465D01*
X129630326Y-81433465D02*
X129677945Y-81623941D01*
X129677945Y-81623941D02*
X129630326Y-81814417D01*
X129630326Y-81814417D02*
X129535088Y-81957275D01*
X129535088Y-81957275D02*
X129392231Y-82052513D01*
X129392231Y-82052513D02*
X129201755Y-82100132D01*
X129201755Y-82100132D02*
X129011279Y-82052513D01*
X129011279Y-82052513D02*
X128868422Y-81957275D01*
X128344612Y-81957275D02*
X128344612Y-81290608D01*
X128344612Y-81481084D02*
X128296993Y-81385846D01*
X128296993Y-81385846D02*
X128249374Y-81338227D01*
X128249374Y-81338227D02*
X128154136Y-81290608D01*
X128154136Y-81290608D02*
X128058898Y-81290608D01*
X127296993Y-81290608D02*
X127296993Y-81957275D01*
X127725564Y-81290608D02*
X127725564Y-81814417D01*
X127725564Y-81814417D02*
X127677945Y-81909656D01*
X127677945Y-81909656D02*
X127582707Y-81957275D01*
X127582707Y-81957275D02*
X127439850Y-81957275D01*
X127439850Y-81957275D02*
X127344612Y-81909656D01*
X127344612Y-81909656D02*
X127296993Y-81862036D01*
X126868421Y-81909656D02*
X126773183Y-81957275D01*
X126773183Y-81957275D02*
X126582707Y-81957275D01*
X126582707Y-81957275D02*
X126487469Y-81909656D01*
X126487469Y-81909656D02*
X126439850Y-81814417D01*
X126439850Y-81814417D02*
X126439850Y-81766798D01*
X126439850Y-81766798D02*
X126487469Y-81671560D01*
X126487469Y-81671560D02*
X126582707Y-81623941D01*
X126582707Y-81623941D02*
X126725564Y-81623941D01*
X126725564Y-81623941D02*
X126820802Y-81576322D01*
X126820802Y-81576322D02*
X126868421Y-81481084D01*
X126868421Y-81481084D02*
X126868421Y-81433465D01*
X126868421Y-81433465D02*
X126820802Y-81338227D01*
X126820802Y-81338227D02*
X126725564Y-81290608D01*
X126725564Y-81290608D02*
X126582707Y-81290608D01*
X126582707Y-81290608D02*
X126487469Y-81338227D01*
X126154135Y-81290608D02*
X125773183Y-81290608D01*
X126011278Y-80957275D02*
X126011278Y-81814417D01*
X126011278Y-81814417D02*
X125963659Y-81909656D01*
X125963659Y-81909656D02*
X125868421Y-81957275D01*
X125868421Y-81957275D02*
X125773183Y-81957275D01*
X125439849Y-81957275D02*
X125439849Y-80957275D01*
X125439849Y-81338227D02*
X125344611Y-81290608D01*
X125344611Y-81290608D02*
X125154135Y-81290608D01*
X125154135Y-81290608D02*
X125058897Y-81338227D01*
X125058897Y-81338227D02*
X125011278Y-81385846D01*
X125011278Y-81385846D02*
X124963659Y-81481084D01*
X124963659Y-81481084D02*
X124963659Y-81766798D01*
X124963659Y-81766798D02*
X125011278Y-81862036D01*
X125011278Y-81862036D02*
X125058897Y-81909656D01*
X125058897Y-81909656D02*
X125154135Y-81957275D01*
X125154135Y-81957275D02*
X125344611Y-81957275D01*
X125344611Y-81957275D02*
X125439849Y-81909656D01*
X124392230Y-81957275D02*
X124487468Y-81909656D01*
X124487468Y-81909656D02*
X124535087Y-81862036D01*
X124535087Y-81862036D02*
X124582706Y-81766798D01*
X124582706Y-81766798D02*
X124582706Y-81481084D01*
X124582706Y-81481084D02*
X124535087Y-81385846D01*
X124535087Y-81385846D02*
X124487468Y-81338227D01*
X124487468Y-81338227D02*
X124392230Y-81290608D01*
X124392230Y-81290608D02*
X124249373Y-81290608D01*
X124249373Y-81290608D02*
X124154135Y-81338227D01*
X124154135Y-81338227D02*
X124106516Y-81385846D01*
X124106516Y-81385846D02*
X124058897Y-81481084D01*
X124058897Y-81481084D02*
X124058897Y-81766798D01*
X124058897Y-81766798D02*
X124106516Y-81862036D01*
X124106516Y-81862036D02*
X124154135Y-81909656D01*
X124154135Y-81909656D02*
X124249373Y-81957275D01*
X124249373Y-81957275D02*
X124392230Y-81957275D01*
X123725563Y-81957275D02*
X123201754Y-81290608D01*
X123725563Y-81290608D02*
X123201754Y-81957275D01*
X129630326Y-83567219D02*
X129630326Y-82900552D01*
X129630326Y-83091028D02*
X129582707Y-82995790D01*
X129582707Y-82995790D02*
X129535088Y-82948171D01*
X129535088Y-82948171D02*
X129439850Y-82900552D01*
X129439850Y-82900552D02*
X129344612Y-82900552D01*
X128630326Y-83519600D02*
X128725564Y-83567219D01*
X128725564Y-83567219D02*
X128916040Y-83567219D01*
X128916040Y-83567219D02*
X129011278Y-83519600D01*
X129011278Y-83519600D02*
X129058897Y-83424361D01*
X129058897Y-83424361D02*
X129058897Y-83043409D01*
X129058897Y-83043409D02*
X129011278Y-82948171D01*
X129011278Y-82948171D02*
X128916040Y-82900552D01*
X128916040Y-82900552D02*
X128725564Y-82900552D01*
X128725564Y-82900552D02*
X128630326Y-82948171D01*
X128630326Y-82948171D02*
X128582707Y-83043409D01*
X128582707Y-83043409D02*
X128582707Y-83138647D01*
X128582707Y-83138647D02*
X129058897Y-83233885D01*
X128249373Y-82900552D02*
X128011278Y-83567219D01*
X128011278Y-83567219D02*
X127773183Y-82900552D01*
X127439849Y-82662457D02*
X127392230Y-82614838D01*
X127392230Y-82614838D02*
X127296992Y-82567219D01*
X127296992Y-82567219D02*
X127058897Y-82567219D01*
X127058897Y-82567219D02*
X126963659Y-82614838D01*
X126963659Y-82614838D02*
X126916040Y-82662457D01*
X126916040Y-82662457D02*
X126868421Y-82757695D01*
X126868421Y-82757695D02*
X126868421Y-82852933D01*
X126868421Y-82852933D02*
X126916040Y-82995790D01*
X126916040Y-82995790D02*
X127487468Y-83567219D01*
X127487468Y-83567219D02*
X126868421Y-83567219D01*
X125725563Y-82662457D02*
X125677944Y-82614838D01*
X125677944Y-82614838D02*
X125582706Y-82567219D01*
X125582706Y-82567219D02*
X125344611Y-82567219D01*
X125344611Y-82567219D02*
X125249373Y-82614838D01*
X125249373Y-82614838D02*
X125201754Y-82662457D01*
X125201754Y-82662457D02*
X125154135Y-82757695D01*
X125154135Y-82757695D02*
X125154135Y-82852933D01*
X125154135Y-82852933D02*
X125201754Y-82995790D01*
X125201754Y-82995790D02*
X125773182Y-83567219D01*
X125773182Y-83567219D02*
X125154135Y-83567219D01*
X124535087Y-82567219D02*
X124439849Y-82567219D01*
X124439849Y-82567219D02*
X124344611Y-82614838D01*
X124344611Y-82614838D02*
X124296992Y-82662457D01*
X124296992Y-82662457D02*
X124249373Y-82757695D01*
X124249373Y-82757695D02*
X124201754Y-82948171D01*
X124201754Y-82948171D02*
X124201754Y-83186266D01*
X124201754Y-83186266D02*
X124249373Y-83376742D01*
X124249373Y-83376742D02*
X124296992Y-83471980D01*
X124296992Y-83471980D02*
X124344611Y-83519600D01*
X124344611Y-83519600D02*
X124439849Y-83567219D01*
X124439849Y-83567219D02*
X124535087Y-83567219D01*
X124535087Y-83567219D02*
X124630325Y-83519600D01*
X124630325Y-83519600D02*
X124677944Y-83471980D01*
X124677944Y-83471980D02*
X124725563Y-83376742D01*
X124725563Y-83376742D02*
X124773182Y-83186266D01*
X124773182Y-83186266D02*
X124773182Y-82948171D01*
X124773182Y-82948171D02*
X124725563Y-82757695D01*
X124725563Y-82757695D02*
X124677944Y-82662457D01*
X124677944Y-82662457D02*
X124630325Y-82614838D01*
X124630325Y-82614838D02*
X124535087Y-82567219D01*
X123820801Y-82662457D02*
X123773182Y-82614838D01*
X123773182Y-82614838D02*
X123677944Y-82567219D01*
X123677944Y-82567219D02*
X123439849Y-82567219D01*
X123439849Y-82567219D02*
X123344611Y-82614838D01*
X123344611Y-82614838D02*
X123296992Y-82662457D01*
X123296992Y-82662457D02*
X123249373Y-82757695D01*
X123249373Y-82757695D02*
X123249373Y-82852933D01*
X123249373Y-82852933D02*
X123296992Y-82995790D01*
X123296992Y-82995790D02*
X123868420Y-83567219D01*
X123868420Y-83567219D02*
X123249373Y-83567219D01*
X122392230Y-82900552D02*
X122392230Y-83567219D01*
X122630325Y-82519600D02*
X122868420Y-83233885D01*
X122868420Y-83233885D02*
X122249373Y-83233885D01*
X121868420Y-83186266D02*
X121106516Y-83186266D01*
X120106516Y-83567219D02*
X120677944Y-83567219D01*
X120392230Y-83567219D02*
X120392230Y-82567219D01*
X120392230Y-82567219D02*
X120487468Y-82710076D01*
X120487468Y-82710076D02*
X120582706Y-82805314D01*
X120582706Y-82805314D02*
X120677944Y-82852933D01*
X119487468Y-82567219D02*
X119392230Y-82567219D01*
X119392230Y-82567219D02*
X119296992Y-82614838D01*
X119296992Y-82614838D02*
X119249373Y-82662457D01*
X119249373Y-82662457D02*
X119201754Y-82757695D01*
X119201754Y-82757695D02*
X119154135Y-82948171D01*
X119154135Y-82948171D02*
X119154135Y-83186266D01*
X119154135Y-83186266D02*
X119201754Y-83376742D01*
X119201754Y-83376742D02*
X119249373Y-83471980D01*
X119249373Y-83471980D02*
X119296992Y-83519600D01*
X119296992Y-83519600D02*
X119392230Y-83567219D01*
X119392230Y-83567219D02*
X119487468Y-83567219D01*
X119487468Y-83567219D02*
X119582706Y-83519600D01*
X119582706Y-83519600D02*
X119630325Y-83471980D01*
X119630325Y-83471980D02*
X119677944Y-83376742D01*
X119677944Y-83376742D02*
X119725563Y-83186266D01*
X119725563Y-83186266D02*
X119725563Y-82948171D01*
X119725563Y-82948171D02*
X119677944Y-82757695D01*
X119677944Y-82757695D02*
X119630325Y-82662457D01*
X119630325Y-82662457D02*
X119582706Y-82614838D01*
X119582706Y-82614838D02*
X119487468Y-82567219D01*
X118725563Y-83186266D02*
X117963659Y-83186266D01*
X117296992Y-82567219D02*
X117201754Y-82567219D01*
X117201754Y-82567219D02*
X117106516Y-82614838D01*
X117106516Y-82614838D02*
X117058897Y-82662457D01*
X117058897Y-82662457D02*
X117011278Y-82757695D01*
X117011278Y-82757695D02*
X116963659Y-82948171D01*
X116963659Y-82948171D02*
X116963659Y-83186266D01*
X116963659Y-83186266D02*
X117011278Y-83376742D01*
X117011278Y-83376742D02*
X117058897Y-83471980D01*
X117058897Y-83471980D02*
X117106516Y-83519600D01*
X117106516Y-83519600D02*
X117201754Y-83567219D01*
X117201754Y-83567219D02*
X117296992Y-83567219D01*
X117296992Y-83567219D02*
X117392230Y-83519600D01*
X117392230Y-83519600D02*
X117439849Y-83471980D01*
X117439849Y-83471980D02*
X117487468Y-83376742D01*
X117487468Y-83376742D02*
X117535087Y-83186266D01*
X117535087Y-83186266D02*
X117535087Y-82948171D01*
X117535087Y-82948171D02*
X117487468Y-82757695D01*
X117487468Y-82757695D02*
X117439849Y-82662457D01*
X117439849Y-82662457D02*
X117392230Y-82614838D01*
X117392230Y-82614838D02*
X117296992Y-82567219D01*
X116582706Y-82662457D02*
X116535087Y-82614838D01*
X116535087Y-82614838D02*
X116439849Y-82567219D01*
X116439849Y-82567219D02*
X116201754Y-82567219D01*
X116201754Y-82567219D02*
X116106516Y-82614838D01*
X116106516Y-82614838D02*
X116058897Y-82662457D01*
X116058897Y-82662457D02*
X116011278Y-82757695D01*
X116011278Y-82757695D02*
X116011278Y-82852933D01*
X116011278Y-82852933D02*
X116058897Y-82995790D01*
X116058897Y-82995790D02*
X116630325Y-83567219D01*
X116630325Y-83567219D02*
X116011278Y-83567219D01*
X113303006Y-82567219D02*
X112731578Y-82567219D01*
X113017292Y-83567219D02*
X113017292Y-82567219D01*
X112493482Y-82567219D02*
X111826816Y-83567219D01*
X111826816Y-82567219D02*
X112493482Y-83567219D01*
X111445863Y-83567219D02*
X111445863Y-82567219D01*
X111445863Y-82567219D02*
X111207768Y-82567219D01*
X111207768Y-82567219D02*
X111064911Y-82614838D01*
X111064911Y-82614838D02*
X110969673Y-82710076D01*
X110969673Y-82710076D02*
X110922054Y-82805314D01*
X110922054Y-82805314D02*
X110874435Y-82995790D01*
X110874435Y-82995790D02*
X110874435Y-83138647D01*
X110874435Y-83138647D02*
X110922054Y-83329123D01*
X110922054Y-83329123D02*
X110969673Y-83424361D01*
X110969673Y-83424361D02*
X111064911Y-83519600D01*
X111064911Y-83519600D02*
X111207768Y-83567219D01*
X111207768Y-83567219D02*
X111445863Y-83567219D01*
X110255387Y-82567219D02*
X110160149Y-82567219D01*
X110160149Y-82567219D02*
X110064911Y-82614838D01*
X110064911Y-82614838D02*
X110017292Y-82662457D01*
X110017292Y-82662457D02*
X109969673Y-82757695D01*
X109969673Y-82757695D02*
X109922054Y-82948171D01*
X109922054Y-82948171D02*
X109922054Y-83186266D01*
X109922054Y-83186266D02*
X109969673Y-83376742D01*
X109969673Y-83376742D02*
X110017292Y-83471980D01*
X110017292Y-83471980D02*
X110064911Y-83519600D01*
X110064911Y-83519600D02*
X110160149Y-83567219D01*
X110160149Y-83567219D02*
X110255387Y-83567219D01*
X110255387Y-83567219D02*
X110350625Y-83519600D01*
X110350625Y-83519600D02*
X110398244Y-83471980D01*
X110398244Y-83471980D02*
X110445863Y-83376742D01*
X110445863Y-83376742D02*
X110493482Y-83186266D01*
X110493482Y-83186266D02*
X110493482Y-82948171D01*
X110493482Y-82948171D02*
X110445863Y-82757695D01*
X110445863Y-82757695D02*
X110398244Y-82662457D01*
X110398244Y-82662457D02*
X110350625Y-82614838D01*
X110350625Y-82614838D02*
X110255387Y-82567219D01*
D12*
X110960588Y-94382561D02*
X110865350Y-94430180D01*
X110865350Y-94430180D02*
X110722493Y-94430180D01*
X110722493Y-94430180D02*
X110579636Y-94382561D01*
X110579636Y-94382561D02*
X110484398Y-94287323D01*
X110484398Y-94287323D02*
X110436779Y-94192085D01*
X110436779Y-94192085D02*
X110389160Y-94001609D01*
X110389160Y-94001609D02*
X110389160Y-93858752D01*
X110389160Y-93858752D02*
X110436779Y-93668276D01*
X110436779Y-93668276D02*
X110484398Y-93573038D01*
X110484398Y-93573038D02*
X110579636Y-93477800D01*
X110579636Y-93477800D02*
X110722493Y-93430180D01*
X110722493Y-93430180D02*
X110817731Y-93430180D01*
X110817731Y-93430180D02*
X110960588Y-93477800D01*
X110960588Y-93477800D02*
X111008207Y-93525419D01*
X111008207Y-93525419D02*
X111008207Y-93858752D01*
X111008207Y-93858752D02*
X110817731Y-93858752D01*
X111436779Y-93430180D02*
X111436779Y-94430180D01*
X111436779Y-94430180D02*
X112008207Y-93430180D01*
X112008207Y-93430180D02*
X112008207Y-94430180D01*
X112484398Y-93430180D02*
X112484398Y-94430180D01*
X112484398Y-94430180D02*
X112722493Y-94430180D01*
X112722493Y-94430180D02*
X112865350Y-94382561D01*
X112865350Y-94382561D02*
X112960588Y-94287323D01*
X112960588Y-94287323D02*
X113008207Y-94192085D01*
X113008207Y-94192085D02*
X113055826Y-94001609D01*
X113055826Y-94001609D02*
X113055826Y-93858752D01*
X113055826Y-93858752D02*
X113008207Y-93668276D01*
X113008207Y-93668276D02*
X112960588Y-93573038D01*
X112960588Y-93573038D02*
X112865350Y-93477800D01*
X112865350Y-93477800D02*
X112722493Y-93430180D01*
X112722493Y-93430180D02*
X112484398Y-93430180D01*
D11*
X113303006Y-74867219D02*
X112731578Y-74867219D01*
X113017292Y-75867219D02*
X113017292Y-74867219D01*
X112493482Y-74867219D02*
X111826816Y-75867219D01*
X111826816Y-74867219D02*
X112493482Y-75867219D01*
X111445863Y-75867219D02*
X111445863Y-74867219D01*
X111445863Y-74867219D02*
X111207768Y-74867219D01*
X111207768Y-74867219D02*
X111064911Y-74914838D01*
X111064911Y-74914838D02*
X110969673Y-75010076D01*
X110969673Y-75010076D02*
X110922054Y-75105314D01*
X110922054Y-75105314D02*
X110874435Y-75295790D01*
X110874435Y-75295790D02*
X110874435Y-75438647D01*
X110874435Y-75438647D02*
X110922054Y-75629123D01*
X110922054Y-75629123D02*
X110969673Y-75724361D01*
X110969673Y-75724361D02*
X111064911Y-75819600D01*
X111064911Y-75819600D02*
X111207768Y-75867219D01*
X111207768Y-75867219D02*
X111445863Y-75867219D01*
X110541101Y-74867219D02*
X109922054Y-74867219D01*
X109922054Y-74867219D02*
X110255387Y-75248171D01*
X110255387Y-75248171D02*
X110112530Y-75248171D01*
X110112530Y-75248171D02*
X110017292Y-75295790D01*
X110017292Y-75295790D02*
X109969673Y-75343409D01*
X109969673Y-75343409D02*
X109922054Y-75438647D01*
X109922054Y-75438647D02*
X109922054Y-75676742D01*
X109922054Y-75676742D02*
X109969673Y-75771980D01*
X109969673Y-75771980D02*
X110017292Y-75819600D01*
X110017292Y-75819600D02*
X110112530Y-75867219D01*
X110112530Y-75867219D02*
X110398244Y-75867219D01*
X110398244Y-75867219D02*
X110493482Y-75819600D01*
X110493482Y-75819600D02*
X110541101Y-75771980D01*
D12*
X107153333Y-95654819D02*
X107153333Y-96369104D01*
X107153333Y-96369104D02*
X107200952Y-96511961D01*
X107200952Y-96511961D02*
X107296190Y-96607200D01*
X107296190Y-96607200D02*
X107439047Y-96654819D01*
X107439047Y-96654819D02*
X107534285Y-96654819D01*
X106724761Y-95750057D02*
X106677142Y-95702438D01*
X106677142Y-95702438D02*
X106581904Y-95654819D01*
X106581904Y-95654819D02*
X106343809Y-95654819D01*
X106343809Y-95654819D02*
X106248571Y-95702438D01*
X106248571Y-95702438D02*
X106200952Y-95750057D01*
X106200952Y-95750057D02*
X106153333Y-95845295D01*
X106153333Y-95845295D02*
X106153333Y-95940533D01*
X106153333Y-95940533D02*
X106200952Y-96083390D01*
X106200952Y-96083390D02*
X106772380Y-96654819D01*
X106772380Y-96654819D02*
X106153333Y-96654819D01*
X108133333Y-72554819D02*
X108133333Y-73269104D01*
X108133333Y-73269104D02*
X108180952Y-73411961D01*
X108180952Y-73411961D02*
X108276190Y-73507200D01*
X108276190Y-73507200D02*
X108419047Y-73554819D01*
X108419047Y-73554819D02*
X108514285Y-73554819D01*
X107133333Y-73554819D02*
X107704761Y-73554819D01*
X107419047Y-73554819D02*
X107419047Y-72554819D01*
X107419047Y-72554819D02*
X107514285Y-72697676D01*
X107514285Y-72697676D02*
X107609523Y-72792914D01*
X107609523Y-72792914D02*
X107704761Y-72840533D01*
X114204819Y-93066666D02*
X114919104Y-93066666D01*
X114919104Y-93066666D02*
X115061961Y-93019047D01*
X115061961Y-93019047D02*
X115157200Y-92923809D01*
X115157200Y-92923809D02*
X115204819Y-92780952D01*
X115204819Y-92780952D02*
X115204819Y-92685714D01*
X114538152Y-93971428D02*
X115204819Y-93971428D01*
X114157200Y-93733333D02*
X114871485Y-93495238D01*
X114871485Y-93495238D02*
X114871485Y-94114285D01*
D13*
%TO.C,J2*%
X107820000Y-94870000D02*
X107820000Y-100070000D01*
X107820000Y-97470000D02*
X110480000Y-97470000D01*
X107820000Y-100070000D02*
X110480000Y-100070000D01*
X110480000Y-94870000D02*
X107820000Y-94870000D01*
X110480000Y-95820000D02*
X110810000Y-95820000D01*
X110480000Y-96580000D02*
X110810000Y-96580000D01*
X110480000Y-98360000D02*
X110877071Y-98360000D01*
X110480000Y-99120000D02*
X110877071Y-99120000D01*
X110480000Y-100070000D02*
X110480000Y-94870000D01*
X111920000Y-94930000D02*
X113190000Y-94930000D01*
X113190000Y-94930000D02*
X113190000Y-96200000D01*
%TO.C,J1*%
X103930000Y-73870000D02*
X106530000Y-73870000D01*
X103930000Y-91770000D02*
X103930000Y-73870000D01*
X103930000Y-91770000D02*
X109130000Y-91770000D01*
X106530000Y-73870000D02*
X106530000Y-76470000D01*
X106530000Y-76470000D02*
X109130000Y-76470000D01*
X107800000Y-73870000D02*
X109130000Y-73870000D01*
X109130000Y-73870000D02*
X109130000Y-75200000D01*
X109130000Y-91770000D02*
X109130000Y-76470000D01*
%TO.C,J4*%
X115670000Y-94870000D02*
X115670000Y-100070000D01*
X115670000Y-94870000D02*
X131030000Y-94870000D01*
X115670000Y-100070000D02*
X128430000Y-100070000D01*
X128430000Y-97470000D02*
X128430000Y-100070000D01*
X131030000Y-94870000D02*
X131030000Y-97470000D01*
X131030000Y-97470000D02*
X128430000Y-97470000D01*
X131030000Y-98740000D02*
X131030000Y-100070000D01*
X131030000Y-100070000D02*
X129700000Y-100070000D01*
%TD*%
M02*
