%TF.GenerationSoftware,KiCad,Pcbnew,8.0.4*%
%TF.CreationDate,2024-08-30T00:40:38-07:00*%
%TF.ProjectId,SYZYGY-RGMII-tester,53595a59-4759-42d5-9247-4d49492d7465,rev?*%
%TF.SameCoordinates,Original*%
%TF.FileFunction,Paste,Top*%
%TF.FilePolarity,Positive*%
%FSLAX46Y46*%
G04 Gerber Fmt 4.6, Leading zero omitted, Abs format (unit mm)*
G04 Created by KiCad (PCBNEW 8.0.4) date 2024-08-30 00:40:38*
%MOMM*%
%LPD*%
G01*
G04 APERTURE LIST*
G04 Aperture macros list*
%AMRoundRect*
0 Rectangle with rounded corners*
0 $1 Rounding radius*
0 $2 $3 $4 $5 $6 $7 $8 $9 X,Y pos of 4 corners*
0 Add a 4 corners polygon primitive as box body*
4,1,4,$2,$3,$4,$5,$6,$7,$8,$9,$2,$3,0*
0 Add four circle primitives for the rounded corners*
1,1,$1+$1,$2,$3*
1,1,$1+$1,$4,$5*
1,1,$1+$1,$6,$7*
1,1,$1+$1,$8,$9*
0 Add four rect primitives between the rounded corners*
20,1,$1+$1,$2,$3,$4,$5,0*
20,1,$1+$1,$4,$5,$6,$7,0*
20,1,$1+$1,$6,$7,$8,$9,0*
20,1,$1+$1,$8,$9,$2,$3,0*%
G04 Aperture macros list end*
%ADD10R,2.270000X0.280000*%
%ADD11R,0.430000X2.540000*%
%ADD12R,0.430000X4.700000*%
%ADD13RoundRect,0.250000X0.475000X-0.250000X0.475000X0.250000X-0.475000X0.250000X-0.475000X-0.250000X0*%
G04 APERTURE END LIST*
D10*
%TO.C,J3*%
X125170000Y-90045000D03*
X119430000Y-90045000D03*
X125170000Y-89545000D03*
X119430000Y-89545000D03*
X125170000Y-88545000D03*
X119430000Y-88545000D03*
X125170000Y-88045000D03*
X119430000Y-88045000D03*
X125170000Y-87045000D03*
X119430000Y-87045000D03*
X125170000Y-86545000D03*
X119430000Y-86545000D03*
X125170000Y-85545000D03*
X119430000Y-85545000D03*
X125170000Y-85045000D03*
X119430000Y-85045000D03*
X125170000Y-84045000D03*
X119430000Y-84045000D03*
X125170000Y-83545000D03*
X119430000Y-83545000D03*
X125170000Y-82545000D03*
X119430000Y-82545000D03*
X125170000Y-82045000D03*
X119430000Y-82045000D03*
X125170000Y-81045000D03*
X119430000Y-81045000D03*
X125170000Y-80545000D03*
X119430000Y-80545000D03*
X125170000Y-79545000D03*
X119430000Y-79545000D03*
X125170000Y-79045000D03*
X119430000Y-79045000D03*
X125170000Y-78045000D03*
X119430000Y-78045000D03*
X125170000Y-77545000D03*
X119430000Y-77545000D03*
X125170000Y-76545000D03*
X119430000Y-76545000D03*
X125170000Y-76045000D03*
X119430000Y-76045000D03*
D11*
X122300000Y-90865000D03*
D12*
X122300000Y-85975000D03*
X122300000Y-79625000D03*
D11*
X122300000Y-74735000D03*
%TD*%
D13*
%TO.C,C2*%
X128115000Y-76100000D03*
X128115000Y-74200000D03*
%TD*%
%TO.C,C1*%
X116415000Y-76000000D03*
X116415000Y-74100000D03*
%TD*%
M02*
