%TF.GenerationSoftware,KiCad,Pcbnew,8.0.4*%
%TF.CreationDate,2024-10-02T17:37:58-07:00*%
%TF.ProjectId,SYZYGY-RGMII-tester,53595a59-4759-42d5-9247-4d49492d7465,rev?*%
%TF.SameCoordinates,Original*%
%TF.FileFunction,Legend,Top*%
%TF.FilePolarity,Positive*%
%FSLAX46Y46*%
G04 Gerber Fmt 4.6, Leading zero omitted, Abs format (unit mm)*
G04 Created by KiCad (PCBNEW 8.0.4) date 2024-10-02 17:37:58*
%MOMM*%
%LPD*%
G01*
G04 APERTURE LIST*
%ADD10C,0.150000*%
%ADD11C,0.120000*%
%ADD12C,0.200000*%
G04 APERTURE END LIST*
D10*
X115094580Y-75216666D02*
X115142200Y-75264285D01*
X115142200Y-75264285D02*
X115189819Y-75407142D01*
X115189819Y-75407142D02*
X115189819Y-75502380D01*
X115189819Y-75502380D02*
X115142200Y-75645237D01*
X115142200Y-75645237D02*
X115046961Y-75740475D01*
X115046961Y-75740475D02*
X114951723Y-75788094D01*
X114951723Y-75788094D02*
X114761247Y-75835713D01*
X114761247Y-75835713D02*
X114618390Y-75835713D01*
X114618390Y-75835713D02*
X114427914Y-75788094D01*
X114427914Y-75788094D02*
X114332676Y-75740475D01*
X114332676Y-75740475D02*
X114237438Y-75645237D01*
X114237438Y-75645237D02*
X114189819Y-75502380D01*
X114189819Y-75502380D02*
X114189819Y-75407142D01*
X114189819Y-75407142D02*
X114237438Y-75264285D01*
X114237438Y-75264285D02*
X114285057Y-75216666D01*
X115189819Y-74264285D02*
X115189819Y-74835713D01*
X115189819Y-74549999D02*
X114189819Y-74549999D01*
X114189819Y-74549999D02*
X114332676Y-74645237D01*
X114332676Y-74645237D02*
X114427914Y-74740475D01*
X114427914Y-74740475D02*
X114475533Y-74835713D01*
X116119819Y-90458333D02*
X116834104Y-90458333D01*
X116834104Y-90458333D02*
X116976961Y-90505952D01*
X116976961Y-90505952D02*
X117072200Y-90601190D01*
X117072200Y-90601190D02*
X117119819Y-90744047D01*
X117119819Y-90744047D02*
X117119819Y-90839285D01*
X116119819Y-90077380D02*
X116119819Y-89458333D01*
X116119819Y-89458333D02*
X116500771Y-89791666D01*
X116500771Y-89791666D02*
X116500771Y-89648809D01*
X116500771Y-89648809D02*
X116548390Y-89553571D01*
X116548390Y-89553571D02*
X116596009Y-89505952D01*
X116596009Y-89505952D02*
X116691247Y-89458333D01*
X116691247Y-89458333D02*
X116929342Y-89458333D01*
X116929342Y-89458333D02*
X117024580Y-89505952D01*
X117024580Y-89505952D02*
X117072200Y-89553571D01*
X117072200Y-89553571D02*
X117119819Y-89648809D01*
X117119819Y-89648809D02*
X117119819Y-89934523D01*
X117119819Y-89934523D02*
X117072200Y-90029761D01*
X117072200Y-90029761D02*
X117024580Y-90077380D01*
X130259580Y-75316666D02*
X130307200Y-75364285D01*
X130307200Y-75364285D02*
X130354819Y-75507142D01*
X130354819Y-75507142D02*
X130354819Y-75602380D01*
X130354819Y-75602380D02*
X130307200Y-75745237D01*
X130307200Y-75745237D02*
X130211961Y-75840475D01*
X130211961Y-75840475D02*
X130116723Y-75888094D01*
X130116723Y-75888094D02*
X129926247Y-75935713D01*
X129926247Y-75935713D02*
X129783390Y-75935713D01*
X129783390Y-75935713D02*
X129592914Y-75888094D01*
X129592914Y-75888094D02*
X129497676Y-75840475D01*
X129497676Y-75840475D02*
X129402438Y-75745237D01*
X129402438Y-75745237D02*
X129354819Y-75602380D01*
X129354819Y-75602380D02*
X129354819Y-75507142D01*
X129354819Y-75507142D02*
X129402438Y-75364285D01*
X129402438Y-75364285D02*
X129450057Y-75316666D01*
X129450057Y-74935713D02*
X129402438Y-74888094D01*
X129402438Y-74888094D02*
X129354819Y-74792856D01*
X129354819Y-74792856D02*
X129354819Y-74554761D01*
X129354819Y-74554761D02*
X129402438Y-74459523D01*
X129402438Y-74459523D02*
X129450057Y-74411904D01*
X129450057Y-74411904D02*
X129545295Y-74364285D01*
X129545295Y-74364285D02*
X129640533Y-74364285D01*
X129640533Y-74364285D02*
X129783390Y-74411904D01*
X129783390Y-74411904D02*
X130354819Y-74983332D01*
X130354819Y-74983332D02*
X130354819Y-74364285D01*
D11*
%TO.C,C1*%
X115680000Y-75311252D02*
X115680000Y-74788748D01*
X117150000Y-75311252D02*
X117150000Y-74788748D01*
D12*
%TO.C,J3*%
X118680000Y-72165000D02*
X118770000Y-72165000D01*
X118680000Y-75555000D02*
X118680000Y-72165000D01*
X118680000Y-93435000D02*
X118680000Y-90535000D01*
X118770000Y-93435000D02*
X118680000Y-93435000D01*
X125920000Y-72165000D02*
X120490000Y-72165000D01*
X125920000Y-72165000D02*
X125920000Y-75545000D01*
X125920000Y-72165000D02*
X125920000Y-75555000D01*
X125920000Y-90535000D02*
X125920000Y-93435000D01*
X125920000Y-90545000D02*
X125920000Y-93435000D01*
X125920000Y-93435000D02*
X120490000Y-93435000D01*
X127100000Y-90295000D02*
G75*
G02*
X126900000Y-90295000I-100000J0D01*
G01*
X126900000Y-90295000D02*
G75*
G02*
X127100000Y-90295000I100000J0D01*
G01*
D11*
%TO.C,C2*%
X127380000Y-75411252D02*
X127380000Y-74888748D01*
X128850000Y-75411252D02*
X128850000Y-74888748D01*
%TD*%
M02*
