%TF.GenerationSoftware,KiCad,Pcbnew,8.0.4*%
%TF.CreationDate,2024-08-30T00:40:38-07:00*%
%TF.ProjectId,SYZYGY-RGMII-tester,53595a59-4759-42d5-9247-4d49492d7465,rev?*%
%TF.SameCoordinates,Original*%
%TF.FileFunction,Copper,L1,Top*%
%TF.FilePolarity,Positive*%
%FSLAX46Y46*%
G04 Gerber Fmt 4.6, Leading zero omitted, Abs format (unit mm)*
G04 Created by KiCad (PCBNEW 8.0.4) date 2024-08-30 00:40:38*
%MOMM*%
%LPD*%
G01*
G04 APERTURE LIST*
G04 Aperture macros list*
%AMRoundRect*
0 Rectangle with rounded corners*
0 $1 Rounding radius*
0 $2 $3 $4 $5 $6 $7 $8 $9 X,Y pos of 4 corners*
0 Add a 4 corners polygon primitive as box body*
4,1,4,$2,$3,$4,$5,$6,$7,$8,$9,$2,$3,0*
0 Add four circle primitives for the rounded corners*
1,1,$1+$1,$2,$3*
1,1,$1+$1,$4,$5*
1,1,$1+$1,$6,$7*
1,1,$1+$1,$8,$9*
0 Add four rect primitives between the rounded corners*
20,1,$1+$1,$2,$3,$4,$5,0*
20,1,$1+$1,$4,$5,$6,$7,0*
20,1,$1+$1,$6,$7,$8,$9,0*
20,1,$1+$1,$8,$9,$2,$3,0*%
G04 Aperture macros list end*
%TA.AperFunction,SMDPad,CuDef*%
%ADD10R,2.270000X0.280000*%
%TD*%
%TA.AperFunction,SMDPad,CuDef*%
%ADD11R,0.430000X2.540000*%
%TD*%
%TA.AperFunction,SMDPad,CuDef*%
%ADD12R,0.430000X4.700000*%
%TD*%
%TA.AperFunction,ComponentPad*%
%ADD13R,1.700000X1.700000*%
%TD*%
%TA.AperFunction,ComponentPad*%
%ADD14O,1.700000X1.700000*%
%TD*%
%TA.AperFunction,SMDPad,CuDef*%
%ADD15RoundRect,0.250000X0.475000X-0.250000X0.475000X0.250000X-0.475000X0.250000X-0.475000X-0.250000X0*%
%TD*%
%TA.AperFunction,ViaPad*%
%ADD16C,0.457200*%
%TD*%
%TA.AperFunction,Conductor*%
%ADD17C,0.381000*%
%TD*%
%TA.AperFunction,Conductor*%
%ADD18C,0.500000*%
%TD*%
G04 APERTURE END LIST*
D10*
%TO.P,J3,01,01*%
%TO.N,unconnected-(J3-Pad01)*%
X125170000Y-90045000D03*
%TO.P,J3,02,02*%
%TO.N,unconnected-(J3-Pad02)*%
X119430000Y-90045000D03*
%TO.P,J3,03,03*%
%TO.N,unconnected-(J3-Pad03)*%
X125170000Y-89545000D03*
%TO.P,J3,04,04*%
%TO.N,unconnected-(J3-Pad04)*%
X119430000Y-89545000D03*
%TO.P,J3,05,05*%
%TO.N,unconnected-(J3-Pad05)*%
X125170000Y-88545000D03*
%TO.P,J3,06,06*%
%TO.N,unconnected-(J3-Pad06)*%
X119430000Y-88545000D03*
%TO.P,J3,07,07*%
%TO.N,unconnected-(J3-Pad07)*%
X125170000Y-88045000D03*
%TO.P,J3,08,08*%
%TO.N,unconnected-(J3-Pad08)*%
X119430000Y-88045000D03*
%TO.P,J3,09,09*%
%TO.N,unconnected-(J3-Pad09)*%
X125170000Y-87045000D03*
%TO.P,J3,10,10*%
%TO.N,unconnected-(J3-Pad10)*%
X119430000Y-87045000D03*
%TO.P,J3,11,11*%
%TO.N,unconnected-(J3-Pad11)*%
X125170000Y-86545000D03*
%TO.P,J3,12,12*%
%TO.N,unconnected-(J3-Pad12)*%
X119430000Y-86545000D03*
%TO.P,J3,13,13*%
%TO.N,unconnected-(J3-Pad13)*%
X125170000Y-85545000D03*
%TO.P,J3,14,14*%
%TO.N,/RXD0_L*%
X119430000Y-85545000D03*
%TO.P,J3,15,15*%
%TO.N,unconnected-(J3-Pad15)*%
X125170000Y-85045000D03*
%TO.P,J3,16,16*%
%TO.N,/RX_CLK_L*%
X119430000Y-85045000D03*
%TO.P,J3,17,17*%
%TO.N,/RX_CTL_L*%
X125170000Y-84045000D03*
%TO.P,J3,18,18*%
%TO.N,/TX_CLK_L*%
X119430000Y-84045000D03*
%TO.P,J3,19,19*%
%TO.N,/RXD3_L*%
X125170000Y-83545000D03*
%TO.P,J3,20,20*%
%TO.N,/TX_CTL_L*%
X119430000Y-83545000D03*
%TO.P,J3,21,21*%
%TO.N,/RXD2_L*%
X125170000Y-82545000D03*
%TO.P,J3,22,22*%
%TO.N,/TXD0_L*%
X119430000Y-82545000D03*
%TO.P,J3,23,23*%
%TO.N,/RXD1_L*%
X125170000Y-82045000D03*
%TO.P,J3,24,24*%
%TO.N,/TXD1_L*%
X119430000Y-82045000D03*
%TO.P,J3,25,25*%
%TO.N,unconnected-(J3-Pad25)*%
X125170000Y-81045000D03*
%TO.P,J3,26,26*%
%TO.N,unconnected-(J3-Pad26)*%
X119430000Y-81045000D03*
%TO.P,J3,27,27*%
%TO.N,unconnected-(J3-Pad27)*%
X125170000Y-80545000D03*
%TO.P,J3,28,28*%
%TO.N,unconnected-(J3-Pad28)*%
X119430000Y-80545000D03*
%TO.P,J3,29,29*%
%TO.N,unconnected-(J3-Pad29)*%
X125170000Y-79545000D03*
%TO.P,J3,30,30*%
%TO.N,unconnected-(J3-Pad30)*%
X119430000Y-79545000D03*
%TO.P,J3,31,31*%
%TO.N,unconnected-(J3-Pad31)*%
X125170000Y-79045000D03*
%TO.P,J3,32,32*%
%TO.N,unconnected-(J3-Pad32)*%
X119430000Y-79045000D03*
%TO.P,J3,33,33*%
%TO.N,unconnected-(J3-Pad33)*%
X125170000Y-78045000D03*
%TO.P,J3,34,34*%
%TO.N,/TXD2_L*%
X119430000Y-78045000D03*
%TO.P,J3,35,35*%
%TO.N,unconnected-(J3-Pad35)*%
X125170000Y-77545000D03*
%TO.P,J3,36,36*%
%TO.N,/TXD3_L*%
X119430000Y-77545000D03*
%TO.P,J3,37,37*%
%TO.N,unconnected-(J3-Pad37)*%
X125170000Y-76545000D03*
%TO.P,J3,38,38*%
%TO.N,unconnected-(J3-Pad38)*%
X119430000Y-76545000D03*
%TO.P,J3,39,39*%
%TO.N,VCC_L*%
X125170000Y-76045000D03*
%TO.P,J3,40,40*%
%TO.N,VCC_H*%
X119430000Y-76045000D03*
D11*
%TO.P,J3,G1,GND*%
%TO.N,GND*%
X122300000Y-90865000D03*
D12*
%TO.P,J3,G2,GND__1*%
X122300000Y-85975000D03*
%TO.P,J3,G3,GND__2*%
X122300000Y-79625000D03*
D11*
%TO.P,J3,G4,GND__3*%
X122300000Y-74735000D03*
%TD*%
D13*
%TO.P,J2,1,Pin_1*%
%TO.N,GND*%
X110500000Y-96200000D03*
D14*
%TO.P,J2,2,Pin_2*%
X110500000Y-98740000D03*
%TD*%
D13*
%TO.P,J4,1,Pin_1*%
%TO.N,GND*%
X129700000Y-98740000D03*
D14*
%TO.P,J4,2,Pin_2*%
%TO.N,/RXD1_L*%
X129700000Y-96200000D03*
%TO.P,J4,3,Pin_3*%
%TO.N,GND*%
X127160000Y-98740000D03*
%TO.P,J4,4,Pin_4*%
%TO.N,/RXD2_L*%
X127160000Y-96200000D03*
%TO.P,J4,5,Pin_5*%
%TO.N,GND*%
X124620000Y-98740000D03*
%TO.P,J4,6,Pin_6*%
%TO.N,/RXD3_L*%
X124620000Y-96200000D03*
%TO.P,J4,7,Pin_7*%
%TO.N,GND*%
X122080000Y-98740000D03*
%TO.P,J4,8,Pin_8*%
%TO.N,/RX_CTL_L*%
X122080000Y-96200000D03*
%TO.P,J4,9,Pin_9*%
%TO.N,GND*%
X119540000Y-98740000D03*
%TO.P,J4,10,Pin_10*%
%TO.N,/RX_CLK_L*%
X119540000Y-96200000D03*
%TO.P,J4,11,Pin_11*%
%TO.N,GND*%
X117000000Y-98740000D03*
%TO.P,J4,12,Pin_12*%
%TO.N,/RXD0_L*%
X117000000Y-96200000D03*
%TD*%
D13*
%TO.P,J1,1,Pin_1*%
%TO.N,/TXD3_L*%
X107800000Y-75200000D03*
D14*
%TO.P,J1,2,Pin_2*%
%TO.N,GND*%
X105260000Y-75200000D03*
%TO.P,J1,3,Pin_3*%
%TO.N,/TXD2_L*%
X107800000Y-77740000D03*
%TO.P,J1,4,Pin_4*%
%TO.N,GND*%
X105260000Y-77740000D03*
%TO.P,J1,5,Pin_5*%
%TO.N,/TXD1_L*%
X107800000Y-80280000D03*
%TO.P,J1,6,Pin_6*%
%TO.N,GND*%
X105260000Y-80280000D03*
%TO.P,J1,7,Pin_7*%
%TO.N,/TXD0_L*%
X107800000Y-82820000D03*
%TO.P,J1,8,Pin_8*%
%TO.N,GND*%
X105260000Y-82820000D03*
%TO.P,J1,9,Pin_9*%
%TO.N,/TX_CTL_L*%
X107800000Y-85360000D03*
%TO.P,J1,10,Pin_10*%
%TO.N,GND*%
X105260000Y-85360000D03*
%TO.P,J1,11,Pin_11*%
%TO.N,/TX_CLK_L*%
X107800000Y-87900000D03*
%TO.P,J1,12,Pin_12*%
%TO.N,GND*%
X105260000Y-87900000D03*
%TO.P,J1,13,Pin_13*%
%TO.N,VCC_L*%
X107800000Y-90440000D03*
%TO.P,J1,14,Pin_14*%
%TO.N,VCC_H*%
X105260000Y-90440000D03*
%TD*%
D15*
%TO.P,C2,1*%
%TO.N,VCC_L*%
X128115000Y-76100000D03*
%TO.P,C2,2*%
%TO.N,GND*%
X128115000Y-74200000D03*
%TD*%
%TO.P,C1,1*%
%TO.N,VCC_H*%
X116415000Y-76000000D03*
%TO.P,C1,2*%
%TO.N,GND*%
X116415000Y-74100000D03*
%TD*%
D16*
%TO.N,GND*%
X129600000Y-81700000D03*
X129600000Y-79700000D03*
X129600000Y-77700000D03*
X129600000Y-75700000D03*
X129600000Y-73700000D03*
X125600000Y-91700000D03*
X125600000Y-73700000D03*
X123600000Y-73700000D03*
X115600000Y-93700000D03*
X113600000Y-97700000D03*
X113600000Y-95700000D03*
X113600000Y-93700000D03*
X113600000Y-91700000D03*
X111600000Y-93700000D03*
X111600000Y-91700000D03*
X111600000Y-73700000D03*
X109600000Y-93700000D03*
X109600000Y-91700000D03*
X109600000Y-73700000D03*
X107600000Y-97700000D03*
X107600000Y-95700000D03*
X107600000Y-93700000D03*
X105600000Y-97700000D03*
X105600000Y-95700000D03*
X105600000Y-93700000D03*
%TO.N,VCC_H*%
X117800000Y-76045000D03*
%TO.N,VCC_L*%
X128100000Y-77000000D03*
%TO.N,GND*%
X122300000Y-73000000D03*
X122300000Y-92600000D03*
X122300000Y-88900000D03*
X122300000Y-82800000D03*
X122300000Y-76600000D03*
X128100000Y-73400000D03*
X116400000Y-73300000D03*
%TD*%
D17*
%TO.N,/RXD0_L*%
X116085895Y-88820000D02*
X116085895Y-88700000D01*
X116760000Y-89060000D02*
X116325895Y-89060000D01*
X116760000Y-88460000D02*
G75*
G03*
X117000000Y-88220000I0J240000D01*
G01*
X117624113Y-89060000D02*
X117000000Y-89060000D01*
X117864113Y-89420000D02*
X117864113Y-89300000D01*
X117000000Y-89060000D02*
X116760000Y-89060000D01*
X117000000Y-90260000D02*
X116325876Y-90260000D01*
X117914105Y-90620000D02*
X117914105Y-90500000D01*
X116325876Y-90860000D02*
X116760000Y-90860000D01*
X117000000Y-91700000D02*
G75*
G03*
X116760000Y-91460000I-240000J0D01*
G01*
X116325876Y-91460000D02*
G75*
G02*
X116085900Y-91220000I24J240000D01*
G01*
X116085876Y-91100000D02*
G75*
G02*
X116325876Y-90859976I240024J0D01*
G01*
X116085876Y-91220000D02*
X116085876Y-91100000D01*
X116085876Y-90020000D02*
X116085876Y-89900000D01*
X116760000Y-90860000D02*
X117000000Y-90860000D01*
X117674105Y-90260000D02*
X117000000Y-90260000D01*
X117674105Y-90860000D02*
G75*
G03*
X117914100Y-90620000I-5J240000D01*
G01*
X116325876Y-89660000D02*
X117000000Y-89660000D01*
X117914105Y-90500000D02*
G75*
G03*
X117674105Y-90259995I-240005J0D01*
G01*
X117864113Y-89300000D02*
G75*
G03*
X117624113Y-89059987I-240013J0D01*
G01*
X116325876Y-90260000D02*
G75*
G02*
X116085900Y-90020000I24J240000D01*
G01*
X117624113Y-89660000D02*
G75*
G03*
X117864100Y-89420000I-13J240000D01*
G01*
X117000000Y-89660000D02*
X117624113Y-89660000D01*
X117000000Y-90860000D02*
X117674105Y-90860000D01*
X116325895Y-89060000D02*
G75*
G02*
X116085900Y-88820000I5J240000D01*
G01*
X116085895Y-88700000D02*
G75*
G02*
X116325895Y-88459995I240005J0D01*
G01*
X116760000Y-91460000D02*
X116325876Y-91460000D01*
X116085876Y-89900000D02*
G75*
G02*
X116325876Y-89659976I240024J0D01*
G01*
X117000000Y-96200000D02*
X117000000Y-91700000D01*
X116325895Y-88460000D02*
X116760000Y-88460000D01*
X117000000Y-88220000D02*
X117000000Y-88100000D01*
X117000000Y-88100000D02*
X117000000Y-86980000D01*
X117000000Y-86980000D02*
X117421836Y-86558164D01*
X117421836Y-86558164D02*
X118435000Y-85545000D01*
X118435000Y-85545000D02*
X119430000Y-85545000D01*
%TO.N,/RX_CLK_L*%
X121704916Y-89564916D02*
X121704916Y-89700000D01*
X121240000Y-92340000D02*
X120858634Y-92340000D01*
X121621366Y-92940000D02*
G75*
G02*
X121861400Y-93180000I34J-240000D01*
G01*
X121480000Y-93540000D02*
G75*
G03*
X121240000Y-93780000I0J-240000D01*
G01*
X121709025Y-92105488D02*
G75*
G02*
X121474513Y-92340025I-234525J-12D01*
G01*
X121240000Y-94500000D02*
X121170000Y-94570000D01*
X120618634Y-92700000D02*
G75*
G03*
X120858634Y-92939966I239966J0D01*
G01*
X119430000Y-85037000D02*
X120937000Y-85037000D01*
X121704848Y-86100000D02*
G75*
G02*
X121472424Y-86332448I-232448J0D01*
G01*
X121480000Y-92940000D02*
X121621366Y-92940000D01*
X121474513Y-91740000D02*
G75*
G02*
X121709000Y-91974512I-13J-234500D01*
G01*
X121240000Y-87764916D02*
X121240000Y-87900000D01*
X121861366Y-93300000D02*
G75*
G02*
X121621366Y-93539966I-239966J0D01*
G01*
X121704916Y-87164916D02*
X121704916Y-87300000D01*
X121707286Y-90906357D02*
G75*
G02*
X121473643Y-91140086I-233686J-43D01*
G01*
X121240000Y-86564848D02*
X121240000Y-86700000D01*
X121473643Y-91140000D02*
X121240000Y-91140000D01*
X120618634Y-91500000D02*
G75*
G03*
X120858634Y-91739966I239966J0D01*
G01*
X120937000Y-85037000D02*
X121240000Y-85340000D01*
X121240000Y-93780000D02*
X121240000Y-93900000D01*
X121473643Y-90533643D02*
G75*
G02*
X121707257Y-90767286I-43J-233657D01*
G01*
X120618634Y-91380000D02*
X120618634Y-91500000D01*
X121240000Y-90300000D02*
G75*
G03*
X121473643Y-90533600I233600J0D01*
G01*
X121704916Y-89700000D02*
G75*
G02*
X121472458Y-89932416I-232416J0D01*
G01*
X121472458Y-89332458D02*
G75*
G02*
X121704942Y-89564916I42J-232442D01*
G01*
X121240000Y-91140000D02*
X120858634Y-91140000D01*
X121472424Y-88732424D02*
G75*
G03*
X121240024Y-88964848I-24J-232376D01*
G01*
X121240000Y-91740000D02*
X121474513Y-91740000D01*
X121472424Y-85732424D02*
G75*
G02*
X121704776Y-85964848I-24J-232376D01*
G01*
X120858634Y-91140000D02*
G75*
G03*
X120618600Y-91380000I-34J-240000D01*
G01*
X121472458Y-87532458D02*
G75*
G03*
X121240058Y-87764916I42J-232442D01*
G01*
X121709025Y-91974512D02*
X121709025Y-92105488D01*
X120858634Y-92940000D02*
X121240000Y-92940000D01*
X121240000Y-86700000D02*
G75*
G03*
X121472458Y-86932500I232500J0D01*
G01*
X120858634Y-92340000D02*
G75*
G03*
X120618600Y-92580000I-34J-240000D01*
G01*
X121472458Y-89932458D02*
G75*
G03*
X121240058Y-90164916I42J-232442D01*
G01*
X121472424Y-86332424D02*
G75*
G03*
X121240024Y-86564848I-24J-232376D01*
G01*
X121861366Y-93180000D02*
X121861366Y-93300000D01*
X121472458Y-86932458D02*
G75*
G02*
X121704942Y-87164916I42J-232442D01*
G01*
X121240000Y-85500000D02*
G75*
G03*
X121472424Y-85732400I232400J0D01*
G01*
X120618634Y-92580000D02*
X120618634Y-92700000D01*
X121704848Y-88500000D02*
G75*
G02*
X121472424Y-88732448I-232448J0D01*
G01*
X121704916Y-87300000D02*
G75*
G02*
X121472458Y-87532416I-232416J0D01*
G01*
X120858634Y-91740000D02*
X121240000Y-91740000D01*
X121240000Y-87900000D02*
G75*
G03*
X121472424Y-88132400I232400J0D01*
G01*
X121240000Y-89100000D02*
G75*
G03*
X121472458Y-89332500I232500J0D01*
G01*
X121472424Y-88132424D02*
G75*
G02*
X121704776Y-88364848I-24J-232376D01*
G01*
X121240000Y-85340000D02*
X121240000Y-85500000D01*
X121704848Y-85964848D02*
X121704848Y-86100000D01*
X121240000Y-92940000D02*
X121480000Y-92940000D01*
X121704848Y-88364848D02*
X121704848Y-88500000D01*
X121170000Y-94570000D02*
X119540000Y-96200000D01*
X121240000Y-88964848D02*
X121240000Y-89100000D01*
X121707286Y-90767286D02*
X121707286Y-90906357D01*
X121240000Y-93900000D02*
X121240000Y-94500000D01*
X121621366Y-93540000D02*
X121480000Y-93540000D01*
X121240000Y-90164916D02*
X121240000Y-90300000D01*
X121474513Y-92340000D02*
X121240000Y-92340000D01*
%TO.N,/RX_CTL_L*%
X123490500Y-85944167D02*
X123300000Y-85944167D01*
X123681000Y-85525167D02*
X123681000Y-85753667D01*
X123300000Y-85944167D02*
X123109500Y-85944167D01*
X122919000Y-86134667D02*
X122919000Y-86353667D01*
X123755000Y-84045000D02*
X123300000Y-84500000D01*
X123109500Y-91344167D02*
G75*
G02*
X123300033Y-91534667I0J-190533D01*
G01*
X125170000Y-84045000D02*
X123755000Y-84045000D01*
X123109500Y-90744167D02*
G75*
G03*
X122918967Y-90934667I0J-190533D01*
G01*
X123490500Y-90144167D02*
G75*
G02*
X123681033Y-90334667I0J-190533D01*
G01*
X122919000Y-89953667D02*
G75*
G03*
X123109500Y-90144200I190500J-33D01*
G01*
X123109500Y-89544167D02*
G75*
G03*
X122918967Y-89734667I0J-190533D01*
G01*
X123681000Y-89353667D02*
G75*
G02*
X123490500Y-89544200I-190500J-33D01*
G01*
X123300000Y-87744167D02*
X123490500Y-87744167D01*
X123300000Y-84500000D02*
X123300000Y-85144167D01*
X123490500Y-88944167D02*
G75*
G02*
X123681033Y-89134667I0J-190533D01*
G01*
X122919000Y-91153667D02*
G75*
G03*
X123109500Y-91344200I190500J-33D01*
G01*
X123300000Y-85144167D02*
G75*
G03*
X123490500Y-85334700I190500J-33D01*
G01*
X123681000Y-85753667D02*
G75*
G02*
X123490500Y-85944200I-190500J-33D01*
G01*
X123490500Y-85334667D02*
G75*
G02*
X123681033Y-85525167I0J-190533D01*
G01*
X123681000Y-89134667D02*
X123681000Y-89353667D01*
X123300000Y-91744167D02*
X123300000Y-93500000D01*
X122919000Y-86353667D02*
G75*
G03*
X123109500Y-86544200I190500J-33D01*
G01*
X123681000Y-86953667D02*
G75*
G02*
X123490500Y-87144200I-190500J-33D01*
G01*
X123681000Y-90553667D02*
G75*
G02*
X123490500Y-90744200I-190500J-33D01*
G01*
X123109500Y-85944167D02*
G75*
G03*
X122918967Y-86134667I0J-190533D01*
G01*
X123300000Y-91534667D02*
X123300000Y-91744167D01*
X123109500Y-88344167D02*
G75*
G03*
X122918967Y-88534667I0J-190533D01*
G01*
X123490500Y-88344167D02*
X123300000Y-88344167D01*
X123681000Y-90334667D02*
X123681000Y-90553667D01*
X122919000Y-88753667D02*
G75*
G03*
X123109500Y-88944200I190500J-33D01*
G01*
X123109500Y-87144167D02*
G75*
G03*
X122918967Y-87334667I0J-190533D01*
G01*
X122919000Y-87553667D02*
G75*
G03*
X123109500Y-87744200I190500J-33D01*
G01*
X123490500Y-87744167D02*
G75*
G02*
X123681033Y-87934667I0J-190533D01*
G01*
X123490500Y-86544167D02*
G75*
G02*
X123681033Y-86734667I0J-190533D01*
G01*
X123490500Y-90744167D02*
X123300000Y-90744167D01*
X123681000Y-88153667D02*
G75*
G02*
X123490500Y-88344200I-190500J-33D01*
G01*
X123300000Y-88944167D02*
X123490500Y-88944167D01*
X123109500Y-86544167D02*
X123300000Y-86544167D01*
X123300000Y-88344167D02*
X123109500Y-88344167D01*
X123300000Y-86544167D02*
X123490500Y-86544167D01*
X123681000Y-86734667D02*
X123681000Y-86953667D01*
X123490500Y-87144167D02*
X123300000Y-87144167D01*
X123300000Y-87144167D02*
X123109500Y-87144167D01*
X122919000Y-87334667D02*
X122919000Y-87553667D01*
X123109500Y-87744167D02*
X123300000Y-87744167D01*
X122919000Y-89734667D02*
X122919000Y-89953667D01*
X123681000Y-87934667D02*
X123681000Y-88153667D01*
X123300000Y-90144167D02*
X123490500Y-90144167D01*
X122919000Y-88534667D02*
X122919000Y-88753667D01*
X123300000Y-90744167D02*
X123109500Y-90744167D01*
X123109500Y-88944167D02*
X123300000Y-88944167D01*
X122919000Y-90934667D02*
X122919000Y-91153667D01*
X123300000Y-89544167D02*
X123109500Y-89544167D01*
X123109500Y-90144167D02*
X123300000Y-90144167D01*
X123300000Y-93500000D02*
X123300000Y-94980000D01*
X123490500Y-89544167D02*
X123300000Y-89544167D01*
X123300000Y-94980000D02*
X122080000Y-96200000D01*
%TO.N,/RXD3_L*%
X127100000Y-93720000D02*
X124620000Y-96200000D01*
X127100000Y-89800000D02*
X127100000Y-93720000D01*
X126650000Y-86803431D02*
X126650000Y-86953431D01*
X127610000Y-86578431D02*
X127100000Y-86578431D01*
X126875000Y-87178431D02*
G75*
G02*
X127099969Y-87403431I0J-224969D01*
G01*
X127850000Y-86218431D02*
X127850000Y-86338431D01*
X126875000Y-85978431D02*
X127100000Y-85978431D01*
X127100000Y-85378431D02*
X126875000Y-85378431D01*
X126650000Y-85603431D02*
X126650000Y-85753431D01*
X127610000Y-85378431D02*
X127340000Y-85378431D01*
X127100000Y-84065000D02*
X127100000Y-84538431D01*
X127340000Y-84778431D02*
X127610000Y-84778431D01*
X127850000Y-85018431D02*
X127850000Y-85138431D01*
X127100000Y-84538431D02*
G75*
G03*
X127340000Y-84778400I240000J31D01*
G01*
X127610000Y-85978431D02*
G75*
G02*
X127849969Y-86218431I0J-239969D01*
G01*
X127100000Y-86578431D02*
X126875000Y-86578431D01*
X126650000Y-86953431D02*
G75*
G03*
X126875000Y-87178400I225000J31D01*
G01*
X126875000Y-88378431D02*
G75*
G02*
X127099969Y-88603431I0J-224969D01*
G01*
X127610000Y-84778431D02*
G75*
G02*
X127849969Y-85018431I0J-239969D01*
G01*
X127100000Y-85978431D02*
X127610000Y-85978431D01*
X127850000Y-85138431D02*
G75*
G02*
X127610000Y-85378400I-240000J31D01*
G01*
X126875000Y-87778431D02*
G75*
G03*
X126650031Y-88003431I0J-224969D01*
G01*
X125170000Y-83537000D02*
X126572000Y-83537000D01*
X127100000Y-87553431D02*
G75*
G02*
X126875000Y-87778400I-225000J31D01*
G01*
X126650000Y-88153431D02*
G75*
G03*
X126875000Y-88378400I225000J31D01*
G01*
X127340000Y-85378431D02*
X127100000Y-85378431D01*
X126875000Y-85378431D02*
G75*
G03*
X126650031Y-85603431I0J-224969D01*
G01*
X126650000Y-85753431D02*
G75*
G03*
X126875000Y-85978400I225000J31D01*
G01*
X127850000Y-86338431D02*
G75*
G02*
X127610000Y-86578400I-240000J31D01*
G01*
X126572000Y-83537000D02*
X127100000Y-84065000D01*
X126875000Y-86578431D02*
G75*
G03*
X126650031Y-86803431I0J-224969D01*
G01*
X127100000Y-87403431D02*
X127100000Y-87553431D01*
X126650000Y-88003431D02*
X126650000Y-88153431D01*
X127100000Y-88603431D02*
X127100000Y-88753431D01*
X127100000Y-88753431D02*
X127100000Y-89800000D01*
%TO.N,/RXD2_L*%
X129055231Y-87412236D02*
G75*
G02*
X128815231Y-87652231I-240031J36D01*
G01*
X128300000Y-85612236D02*
G75*
G03*
X128540000Y-85852200I240000J36D01*
G01*
X129055231Y-85012236D02*
G75*
G02*
X128815231Y-85252231I-240031J36D01*
G01*
X128815231Y-85852236D02*
G75*
G02*
X129055164Y-86092236I-31J-239964D01*
G01*
X129055231Y-86212236D02*
G75*
G02*
X128815231Y-86452231I-240031J36D01*
G01*
X128300000Y-86812236D02*
G75*
G03*
X128540000Y-87052200I240000J36D01*
G01*
X128540000Y-86452236D02*
G75*
G03*
X128300036Y-86692236I0J-239964D01*
G01*
X128815231Y-87052236D02*
G75*
G02*
X129055164Y-87292236I-31J-239964D01*
G01*
X127884766Y-87652236D02*
G75*
G03*
X127644836Y-87892236I34J-239964D01*
G01*
X128300000Y-88612236D02*
X128300000Y-89600000D01*
X128300000Y-95060000D02*
X127160000Y-96200000D01*
X128540000Y-87052236D02*
X128815231Y-87052236D01*
X128300000Y-88492236D02*
X128300000Y-88612236D01*
X128300000Y-86692236D02*
X128300000Y-86812236D01*
X127884766Y-88252236D02*
X128060000Y-88252236D01*
X128815231Y-86452236D02*
X128540000Y-86452236D01*
X127644766Y-88012236D02*
G75*
G03*
X127884766Y-88252234I240034J36D01*
G01*
X128540000Y-85852236D02*
X128815231Y-85852236D01*
X128300000Y-85492236D02*
X128300000Y-85612236D01*
X129055231Y-87292236D02*
X129055231Y-87412236D01*
X128815231Y-85252236D02*
X128540000Y-85252236D01*
X129055231Y-84892236D02*
X129055231Y-85012236D01*
X129055231Y-86092236D02*
X129055231Y-86212236D01*
X128540000Y-87652236D02*
X127884766Y-87652236D01*
X128300000Y-83800000D02*
X128300000Y-84412236D01*
X128815231Y-84652236D02*
G75*
G02*
X129055164Y-84892236I-31J-239964D01*
G01*
X128815231Y-87652236D02*
X128540000Y-87652236D01*
X128540000Y-84652236D02*
X128815231Y-84652236D01*
X128300000Y-84412236D02*
G75*
G03*
X128540000Y-84652200I240000J36D01*
G01*
X127053000Y-82553000D02*
X128300000Y-83800000D01*
X126088000Y-82553000D02*
X127053000Y-82553000D01*
X128060000Y-88252236D02*
G75*
G02*
X128299964Y-88492236I0J-239964D01*
G01*
X128540000Y-85252236D02*
G75*
G03*
X128300036Y-85492236I0J-239964D01*
G01*
X127644766Y-87892236D02*
X127644766Y-88012236D01*
X128300000Y-89600000D02*
X128300000Y-95060000D01*
%TO.N,/RXD1_L*%
X130521032Y-85037475D02*
G75*
G02*
X130281032Y-85277532I-240032J-25D01*
G01*
X129940000Y-85877475D02*
X130281041Y-85877475D01*
X129700000Y-84437475D02*
G75*
G03*
X129940000Y-84677500I240000J-25D01*
G01*
X130281032Y-85277475D02*
X129940000Y-85277475D01*
X130521032Y-84917475D02*
X130521032Y-85037475D01*
X127745000Y-82045000D02*
X129700000Y-84000000D01*
X125170000Y-82045000D02*
X127745000Y-82045000D01*
X129940000Y-84677475D02*
X130281032Y-84677475D01*
X129700000Y-85637475D02*
G75*
G03*
X129940000Y-85877500I240000J-25D01*
G01*
X129940000Y-86477475D02*
G75*
G03*
X129699975Y-86717475I0J-240025D01*
G01*
X129940000Y-85277475D02*
G75*
G03*
X129699975Y-85517475I0J-240025D01*
G01*
X129700000Y-86837475D02*
X129700000Y-89600000D01*
X130281041Y-85877475D02*
G75*
G02*
X130521025Y-86117475I-41J-240025D01*
G01*
X129700000Y-84000000D02*
X129700000Y-84437475D01*
X129700000Y-85517475D02*
X129700000Y-85637475D01*
X130521041Y-86237475D02*
G75*
G02*
X130281041Y-86477541I-240041J-25D01*
G01*
X130521041Y-86117475D02*
X130521041Y-86237475D01*
X130281032Y-84677475D02*
G75*
G02*
X130521025Y-84917475I-32J-240025D01*
G01*
X129700000Y-86717475D02*
X129700000Y-86837475D01*
X129700000Y-89600000D02*
X129700000Y-96200000D01*
X130281041Y-86477475D02*
X129940000Y-86477475D01*
D18*
%TO.N,VCC_L*%
X128100000Y-77000000D02*
X128100000Y-76115000D01*
X128100000Y-76115000D02*
X128115000Y-76100000D01*
D17*
%TO.N,VCC_H*%
X119430000Y-76045000D02*
X116460000Y-76045000D01*
X116460000Y-76045000D02*
X116415000Y-76000000D01*
%TO.N,VCC_L*%
X125170000Y-76045000D02*
X128060000Y-76045000D01*
X128060000Y-76045000D02*
X128115000Y-76100000D01*
%TO.N,/TX_CLK_L*%
X115856679Y-85743322D02*
X116050000Y-85550000D01*
X115388659Y-85784418D02*
X115432416Y-85828175D01*
X114398714Y-86491536D02*
X114583885Y-86676707D01*
X112840000Y-88140000D02*
G75*
G02*
X113080000Y-87900000I240000J0D01*
G01*
X114753590Y-86846412D02*
X114753590Y-86846410D01*
X114059304Y-86491535D02*
G75*
G02*
X114398705Y-86491544I169696J-169665D01*
G01*
X114583885Y-86676707D02*
X114753590Y-86846412D01*
X114753590Y-86846410D02*
X115249862Y-87342682D01*
X113974449Y-86576389D02*
X114059304Y-86491535D01*
X112600000Y-88841873D02*
G75*
G03*
X112839973Y-88601873I0J239973D01*
G01*
X115674125Y-86918417D02*
X115177852Y-86422144D01*
X113700000Y-87900000D02*
X114159619Y-87440381D01*
X112240000Y-87660000D02*
X112240000Y-88601873D01*
X113080000Y-87900000D02*
X113200000Y-87900000D01*
X112240000Y-87198127D02*
X112240000Y-87660000D01*
X111880000Y-86958127D02*
X112000000Y-86958127D01*
X111640000Y-87660000D02*
X111640000Y-87198127D01*
X116050000Y-85550000D02*
X117547000Y-84053000D01*
X115432416Y-85828175D02*
G75*
G03*
X115771804Y-85828155I169684J169675D01*
G01*
X111400000Y-87900000D02*
G75*
G03*
X111640000Y-87660000I0J240000D01*
G01*
X115589273Y-87342682D02*
X115674125Y-87257829D01*
X114964393Y-85869272D02*
X115049247Y-85784419D01*
X113200000Y-87900000D02*
X113700000Y-87900000D01*
X111640000Y-87198127D02*
G75*
G02*
X111880000Y-86958100I240000J27D01*
G01*
X112000000Y-86958127D02*
G75*
G02*
X112239973Y-87198127I0J-239973D01*
G01*
X112840000Y-88601873D02*
X112840000Y-88140000D01*
X107800000Y-87900000D02*
X111400000Y-87900000D01*
X115249862Y-87342682D02*
G75*
G03*
X115589273Y-87342683I169706J169707D01*
G01*
X115049247Y-85784419D02*
G75*
G02*
X115388706Y-85784371I169753J-169681D01*
G01*
X113974450Y-86915799D02*
G75*
G02*
X113974456Y-86576395I169750J169699D01*
G01*
X112240000Y-88601873D02*
G75*
G03*
X112480000Y-88841900I240000J-27D01*
G01*
X117547000Y-84053000D02*
X119430000Y-84053000D01*
X114159620Y-87100969D02*
X113974450Y-86915799D01*
X115177854Y-86422146D02*
X115008149Y-86252441D01*
X114159619Y-87440381D02*
G75*
G03*
X114159595Y-87100994I-169719J169681D01*
G01*
X112480000Y-88841873D02*
X112600000Y-88841873D01*
X115674125Y-87257829D02*
G75*
G03*
X115674148Y-86918394I-169725J169729D01*
G01*
X114964392Y-86208684D02*
G75*
G02*
X114964414Y-85869294I169708J169684D01*
G01*
X115177852Y-86422144D02*
X115177854Y-86422146D01*
X115771826Y-85828176D02*
X115856679Y-85743322D01*
X115008149Y-86252441D02*
X114964392Y-86208684D01*
%TO.N,/TX_CTL_L*%
X115337460Y-84462540D02*
X115193776Y-84318856D01*
X115044254Y-83881966D02*
X115116099Y-83810122D01*
X115481142Y-84606223D02*
X115337458Y-84462539D01*
X115630650Y-84755731D02*
X115481142Y-84606223D01*
X112554400Y-85977867D02*
X112656000Y-85977867D01*
X114440000Y-85360000D02*
X114834565Y-84965435D01*
X114180000Y-85360000D02*
X114440000Y-85360000D01*
X113164000Y-84742149D02*
G75*
G02*
X113367151Y-84945349I0J-203151D01*
G01*
X115121933Y-84965435D02*
X115271440Y-85114942D01*
X113570400Y-85977851D02*
X113672000Y-85977851D01*
X115116099Y-83810122D02*
G75*
G02*
X115403467Y-83810122I143684J-143684D01*
G01*
X113367200Y-85563200D02*
X113367200Y-85774651D01*
X115558808Y-85114942D02*
X115630650Y-85043099D01*
X113367200Y-85360000D02*
X113367200Y-85563200D01*
X113367200Y-84945349D02*
X113367200Y-85360000D01*
X113062400Y-84742149D02*
X113164000Y-84742149D01*
X115271440Y-85114942D02*
G75*
G03*
X115558808Y-85114942I143684J143684D01*
G01*
X112859200Y-85360000D02*
X112859200Y-84945349D01*
X112859200Y-85563200D02*
X112859200Y-85360000D01*
X112859200Y-85774667D02*
X112859200Y-85563200D01*
X112351200Y-85563200D02*
X112351200Y-85774667D01*
X111538400Y-85977851D02*
X111640000Y-85977851D01*
X115193776Y-84318856D02*
X115044254Y-84169334D01*
X115337458Y-84462539D02*
X115337460Y-84462540D01*
X113875200Y-85774651D02*
X113875200Y-85563200D01*
X111335200Y-85563200D02*
X111335200Y-85774651D01*
X111030400Y-85360000D02*
X111132000Y-85360000D01*
X110522400Y-85977851D02*
X110624000Y-85977851D01*
X114078400Y-85360000D02*
X114180000Y-85360000D01*
X110319200Y-85563200D02*
X110319200Y-85774651D01*
X110014400Y-85360000D02*
X110116000Y-85360000D01*
X109303200Y-85774667D02*
G75*
G03*
X109506400Y-85977900I203200J-33D01*
G01*
X109811200Y-85774667D02*
X109811200Y-85563200D01*
X116255000Y-83545000D02*
X119430000Y-83545000D01*
X112148000Y-85360000D02*
G75*
G02*
X112351200Y-85563200I0J-203200D01*
G01*
X110827200Y-85774651D02*
X110827200Y-85563200D01*
X109100000Y-85360000D02*
G75*
G02*
X109303200Y-85563200I0J-203200D01*
G01*
X110827200Y-85563200D02*
G75*
G02*
X111030400Y-85360000I203200J0D01*
G01*
X112351200Y-85774667D02*
G75*
G03*
X112554400Y-85977900I203200J-33D01*
G01*
X111640000Y-85977851D02*
G75*
G03*
X111843151Y-85774651I0J203151D01*
G01*
X109608000Y-85977867D02*
G75*
G03*
X109811167Y-85774667I0J203167D01*
G01*
X110624000Y-85977851D02*
G75*
G03*
X110827151Y-85774651I0J203151D01*
G01*
X110116000Y-85360000D02*
G75*
G02*
X110319200Y-85563200I0J-203200D01*
G01*
X111843200Y-85563200D02*
G75*
G02*
X112046400Y-85360000I203200J0D01*
G01*
X112046400Y-85360000D02*
X112148000Y-85360000D01*
X115044254Y-84169334D02*
G75*
G02*
X115044304Y-83882016I143646J143634D01*
G01*
X109811200Y-85563200D02*
G75*
G02*
X110014400Y-85360000I203200J0D01*
G01*
X114834565Y-84965435D02*
G75*
G02*
X115121933Y-84965435I143684J-143684D01*
G01*
X113367200Y-85774651D02*
G75*
G03*
X113570400Y-85977900I203200J-49D01*
G01*
X107800000Y-85360000D02*
X109100000Y-85360000D01*
X113672000Y-85977851D02*
G75*
G03*
X113875151Y-85774651I0J203151D01*
G01*
X111843200Y-85774651D02*
X111843200Y-85563200D01*
X109303200Y-85563200D02*
X109303200Y-85774667D01*
X113875200Y-85563200D02*
G75*
G02*
X114078400Y-85360000I203200J0D01*
G01*
X115630650Y-85043099D02*
G75*
G03*
X115630665Y-84755716I-143650J143699D01*
G01*
X110319200Y-85774651D02*
G75*
G03*
X110522400Y-85977900I203200J-49D01*
G01*
X112656000Y-85977867D02*
G75*
G03*
X112859167Y-85774667I0J203167D01*
G01*
X112859200Y-84945349D02*
G75*
G02*
X113062400Y-84742100I203200J49D01*
G01*
X115552990Y-83959645D02*
G75*
G03*
X115840358Y-83959645I143684J143684D01*
G01*
X115840358Y-83959645D02*
X115912199Y-83887802D01*
X111335200Y-85774651D02*
G75*
G03*
X111538400Y-85977900I203200J-49D01*
G01*
X109506400Y-85977867D02*
X109608000Y-85977867D01*
X115403467Y-83810122D02*
X115552990Y-83959645D01*
X115912199Y-83887802D02*
X116255000Y-83545000D01*
X111132000Y-85360000D02*
G75*
G02*
X111335200Y-85563200I0J-203200D01*
G01*
%TO.N,/TXD0_L*%
X110872000Y-83900000D02*
X110872000Y-84514852D01*
X110042000Y-84232000D02*
X110042000Y-83900000D01*
X111204000Y-84846852D02*
X111370000Y-84846852D01*
X109212000Y-84232000D02*
X109212000Y-84514852D01*
X118059237Y-82775237D02*
G75*
G02*
X118281474Y-82552937I222263J37D01*
G01*
X110042000Y-83235149D02*
G75*
G02*
X110374000Y-82903200I332000J-51D01*
G01*
X111702000Y-83235149D02*
G75*
G02*
X112034000Y-82903200I332000J-51D01*
G01*
X110042000Y-84514852D02*
X110042000Y-84232000D01*
X110872000Y-83235149D02*
X110872000Y-83900000D01*
X117837000Y-82997474D02*
G75*
G03*
X118059274Y-82775237I0J222274D01*
G01*
X116177000Y-82997474D02*
G75*
G03*
X116399274Y-82775237I0J222274D01*
G01*
X112532000Y-83568000D02*
G75*
G03*
X112864000Y-83900000I332000J0D01*
G01*
X117229237Y-82775237D02*
G75*
G03*
X117451474Y-82997463I222263J37D01*
G01*
X110540000Y-82903149D02*
G75*
G02*
X110872051Y-83235149I0J-332051D01*
G01*
X112200000Y-82903149D02*
G75*
G02*
X112532051Y-83235149I0J-332051D01*
G01*
X115791474Y-82997474D02*
X116177000Y-82997474D01*
X116399237Y-82775237D02*
G75*
G02*
X116621474Y-82552937I222263J37D01*
G01*
X110374000Y-82903149D02*
X110540000Y-82903149D01*
X107800000Y-82820000D02*
X108880000Y-83900000D01*
X108880000Y-83900000D02*
G75*
G02*
X109212000Y-84232000I0J-332000D01*
G01*
X109544000Y-84846852D02*
X109710000Y-84846852D01*
X118281474Y-82553000D02*
X118667000Y-82553000D01*
X109212000Y-84514852D02*
G75*
G03*
X109544000Y-84846900I332000J-48D01*
G01*
X109710000Y-84846852D02*
G75*
G03*
X110041952Y-84514852I0J331952D01*
G01*
X110042000Y-83900000D02*
X110042000Y-83235149D01*
X115347000Y-82553000D02*
G75*
G02*
X115569200Y-82775237I0J-222200D01*
G01*
X110872000Y-84514852D02*
G75*
G03*
X111204000Y-84846900I332000J-48D01*
G01*
X111702000Y-84514852D02*
X111702000Y-83900000D01*
X111370000Y-84846852D02*
G75*
G03*
X111701952Y-84514852I0J331952D01*
G01*
X114000000Y-83900000D02*
X115347000Y-82553000D01*
X117007000Y-82553000D02*
G75*
G02*
X117229200Y-82775237I0J-222200D01*
G01*
X115569237Y-82775237D02*
G75*
G03*
X115791474Y-82997463I222263J37D01*
G01*
X111702000Y-83900000D02*
X111702000Y-83568000D01*
X118924580Y-82553000D02*
X119430000Y-82553000D01*
X111702000Y-83568000D02*
X111702000Y-83235149D01*
X112532000Y-83235149D02*
X112532000Y-83568000D01*
X113030000Y-83900000D02*
X114000000Y-83900000D01*
X116621474Y-82553000D02*
X117007000Y-82553000D01*
X118667000Y-82553000D02*
X118924580Y-82553000D01*
X117451474Y-82997474D02*
X117837000Y-82997474D01*
X112864000Y-83900000D02*
X113030000Y-83900000D01*
X112034000Y-82903149D02*
X112200000Y-82903149D01*
%TO.N,/TXD1_L*%
X112498000Y-80280000D02*
X112640000Y-80280000D01*
X110084000Y-79996000D02*
X110084000Y-79605069D01*
X112214000Y-79605088D02*
X112214000Y-79996000D01*
X107800000Y-80280000D02*
X109800000Y-80280000D01*
X118200000Y-82045000D02*
X119430000Y-82045000D01*
X111504000Y-79996000D02*
X111504000Y-79605088D01*
X114997512Y-80641380D02*
G75*
G02*
X114997514Y-81043018I-200812J-200820D01*
G01*
X111078000Y-81238912D02*
X111220000Y-81238912D01*
X110794000Y-80280000D02*
X110794000Y-80954912D01*
X111930000Y-79321088D02*
G75*
G02*
X112214012Y-79605088I0J-284012D01*
G01*
X110794000Y-79605069D02*
X110794000Y-79996000D01*
X117559000Y-81370088D02*
X117559000Y-81761000D01*
X116849000Y-81370088D02*
G75*
G02*
X117133000Y-81086100I284000J-12D01*
G01*
X109800000Y-80280000D02*
G75*
G03*
X110084000Y-79996000I0J284000D01*
G01*
X114897103Y-80540971D02*
X114997512Y-80641380D01*
X111504000Y-80954912D02*
X111504000Y-80280000D01*
X114997512Y-81043016D02*
X114721083Y-81319446D01*
X110084000Y-79605069D02*
G75*
G02*
X110368000Y-79321100I284000J-31D01*
G01*
X111788000Y-79321088D02*
X111930000Y-79321088D01*
X116565000Y-82045000D02*
G75*
G03*
X116849000Y-81761000I0J284000D01*
G01*
X117275000Y-81086088D02*
G75*
G02*
X117559012Y-81370088I0J-284012D01*
G01*
X110794000Y-80954912D02*
G75*
G03*
X111078000Y-81238900I284000J12D01*
G01*
X110794000Y-79996000D02*
X110794000Y-80280000D01*
X114721083Y-81319446D02*
G75*
G03*
X114721046Y-81721117I200817J-200854D01*
G01*
X117559000Y-81761000D02*
G75*
G03*
X117843000Y-82045000I284000J0D01*
G01*
X115045000Y-82045000D02*
X115805000Y-82045000D01*
X110510000Y-79321069D02*
G75*
G02*
X110794031Y-79605069I0J-284031D01*
G01*
X111220000Y-81238912D02*
G75*
G03*
X111504012Y-80954912I0J284012D01*
G01*
X111504000Y-79605088D02*
G75*
G02*
X111788000Y-79321100I284000J-12D01*
G01*
X111504000Y-80280000D02*
X111504000Y-79996000D01*
X113817401Y-80817401D02*
G75*
G03*
X114219037Y-80817401I200818J200816D01*
G01*
X112214000Y-79996000D02*
G75*
G03*
X112498000Y-80280000I284000J0D01*
G01*
X117133000Y-81086088D02*
X117275000Y-81086088D01*
X110368000Y-79321069D02*
X110510000Y-79321069D01*
X114219037Y-80817401D02*
X114495467Y-80540972D01*
X115805000Y-82045000D02*
X116565000Y-82045000D01*
X114495467Y-80540972D02*
G75*
G02*
X114897117Y-80540956I200833J-200828D01*
G01*
X112640000Y-80280000D02*
X113280000Y-80280000D01*
X113280000Y-80280000D02*
X113817401Y-80817401D01*
X114721082Y-81721082D02*
X114821492Y-81821492D01*
X114821492Y-81821492D02*
X115045000Y-82045000D01*
X116849000Y-81761000D02*
X116849000Y-81370088D01*
X117985000Y-82045000D02*
X118200000Y-82045000D01*
X117843000Y-82045000D02*
X117985000Y-82045000D01*
%TO.N,/TXD2_L*%
X114316000Y-78500000D02*
X114180000Y-78500000D01*
X115268000Y-78772000D02*
X115268000Y-79512680D01*
X115948000Y-78309500D02*
G75*
G03*
X115757500Y-78119000I-190500J0D01*
G01*
X115268000Y-78309500D02*
X115268000Y-78500000D01*
X115948000Y-78500000D02*
X115948000Y-78309500D01*
X109800000Y-76900000D02*
X108986233Y-77713767D01*
X114588000Y-79512680D02*
X114588000Y-78772000D01*
X115458500Y-78119000D02*
G75*
G03*
X115268000Y-78309500I0J-190500D01*
G01*
X115948000Y-78772000D02*
X115948000Y-78500000D01*
X117968070Y-78053000D02*
X117347000Y-78053000D01*
X113800000Y-78500000D02*
X112200000Y-76900000D01*
X108986233Y-77713767D02*
X108960000Y-77740000D01*
X116628000Y-78772000D02*
X116628000Y-79530187D01*
X115268000Y-79512680D02*
G75*
G02*
X114996000Y-79784700I-272000J-20D01*
G01*
X117347000Y-78053000D02*
X116900000Y-78500000D01*
X115268000Y-78500000D02*
X115268000Y-78772000D01*
X116900000Y-78500000D02*
G75*
G03*
X116628000Y-78772000I0J-272000D01*
G01*
X114860000Y-79784680D02*
G75*
G02*
X114588020Y-79512680I0J271980D01*
G01*
X116628000Y-79530187D02*
G75*
G02*
X116356000Y-79802200I-272000J-13D01*
G01*
X115948000Y-79530187D02*
X115948000Y-78772000D01*
X119430000Y-78053000D02*
X117968070Y-78053000D01*
X110976000Y-76900000D02*
X110840000Y-76900000D01*
X111248000Y-77172000D02*
G75*
G03*
X110976000Y-76900000I-272000J0D01*
G01*
X111248000Y-77912680D02*
X111248000Y-77172000D01*
X111656000Y-78184680D02*
X111520000Y-78184680D01*
X108960000Y-77740000D02*
X107800000Y-77740000D01*
X110840000Y-76900000D02*
X109800000Y-76900000D01*
X116220000Y-79802187D02*
G75*
G02*
X115948013Y-79530187I0J271987D01*
G01*
X114588000Y-78772000D02*
G75*
G03*
X114316000Y-78500000I-272000J0D01*
G01*
X116356000Y-79802187D02*
X116220000Y-79802187D01*
X111520000Y-78184680D02*
G75*
G02*
X111248020Y-77912680I0J271980D01*
G01*
X112200000Y-76900000D02*
G75*
G03*
X111928000Y-77172000I0J-272000D01*
G01*
X115757500Y-78119000D02*
X115458500Y-78119000D01*
X111928000Y-77912680D02*
G75*
G02*
X111656000Y-78184700I-272000J-20D01*
G01*
X114180000Y-78500000D02*
X113800000Y-78500000D01*
X114996000Y-79784680D02*
X114860000Y-79784680D01*
X111928000Y-77172000D02*
X111928000Y-77912680D01*
%TO.N,/TXD3_L*%
X113660494Y-74878916D02*
G75*
G02*
X113999907Y-74878917I169706J-169684D01*
G01*
X114933276Y-75812300D02*
G75*
G02*
X114933270Y-76151706I-169676J-169700D01*
G01*
X113188041Y-76709010D02*
G75*
G03*
X113527453Y-76709010I169706J169704D01*
G01*
X113103189Y-76284746D02*
G75*
G03*
X113103141Y-76624206I169711J-169754D01*
G01*
X117245000Y-76860924D02*
G75*
G02*
X117484976Y-77100924I0J-239976D01*
G01*
X113951739Y-77472661D02*
X114036591Y-77557513D01*
X117485000Y-77305000D02*
G75*
G03*
X117725000Y-77545000I240000J0D01*
G01*
X114509012Y-75727447D02*
G75*
G02*
X114848407Y-75727465I169688J-169753D01*
G01*
X115121316Y-77321316D02*
X115345000Y-77545000D01*
X116885000Y-77100924D02*
G75*
G02*
X117125000Y-76860900I240000J24D01*
G01*
X113763673Y-75624263D02*
X113593968Y-75793968D01*
X112650000Y-75200000D02*
X113000000Y-75200000D01*
X116645000Y-77545000D02*
G75*
G03*
X116885000Y-77305000I0J240000D01*
G01*
X114018231Y-76218231D02*
X114509012Y-75727447D01*
X113000000Y-75200000D02*
G75*
G03*
X113339405Y-75199995I169700J169700D01*
G01*
X114697052Y-77236463D02*
G75*
G02*
X115036464Y-77236463I169706J-169704D01*
G01*
X116885000Y-77305000D02*
X116885000Y-77100924D01*
X117725000Y-77545000D02*
X117845000Y-77545000D01*
X114442494Y-76642495D02*
X114442495Y-76642495D01*
X114084758Y-74963769D02*
G75*
G02*
X114084783Y-75303206I-169658J-169731D01*
G01*
X113951739Y-77133250D02*
G75*
G03*
X113951694Y-77472706I169661J-169750D01*
G01*
X113103189Y-76624158D02*
X113188041Y-76709010D01*
X117485000Y-77100924D02*
X117485000Y-77305000D01*
X113999906Y-74878917D02*
X114084758Y-74963769D01*
X115036464Y-77236463D02*
X115121316Y-77321316D01*
X114272789Y-76812200D02*
X113951739Y-77133250D01*
X114848424Y-75727448D02*
X114933276Y-75812300D01*
X107800000Y-75200000D02*
X112000000Y-75200000D01*
X114036591Y-77557513D02*
G75*
G03*
X114376003Y-77557513I169706J169704D01*
G01*
X115345000Y-77545000D02*
X115995000Y-77545000D01*
X113339412Y-75200001D02*
X113660494Y-74878916D01*
X117845000Y-77545000D02*
X117900000Y-77545000D01*
X114442495Y-76642495D02*
X114272789Y-76812200D01*
X114084758Y-75303181D02*
X113763673Y-75624263D01*
X115995000Y-77545000D02*
X116645000Y-77545000D01*
X112000000Y-75200000D02*
X112650000Y-75200000D01*
X117900000Y-77545000D02*
X119430000Y-77545000D01*
X114933276Y-76151712D02*
X114442494Y-76642495D01*
X113593968Y-75793968D02*
X113103189Y-76284746D01*
X114376003Y-77557513D02*
X114697052Y-77236463D01*
X117125000Y-76860924D02*
X117245000Y-76860924D01*
X113527453Y-76709010D02*
X114018231Y-76218231D01*
D18*
%TO.N,GND*%
X122300000Y-74735000D02*
X122300000Y-73000000D01*
X122300000Y-90865000D02*
X122300000Y-92600000D01*
X122300000Y-88900000D02*
X122300000Y-85975000D01*
X122300000Y-82800000D02*
X122300000Y-79625000D01*
X122300000Y-76600000D02*
X122300000Y-74735000D01*
D17*
X128115000Y-73415000D02*
X128100000Y-73400000D01*
X128115000Y-74200000D02*
X128115000Y-73415000D01*
X116415000Y-73315000D02*
X116400000Y-73300000D01*
X116415000Y-74100000D02*
X116415000Y-73315000D01*
D18*
X122300000Y-79625000D02*
X122300000Y-76600000D01*
X122300000Y-85975000D02*
X122300000Y-82800000D01*
X122300000Y-90865000D02*
X122300000Y-88900000D01*
%TD*%
M02*
