M48
; DRILL file {KiCad 8.0.4} date 2024-08-30T00:40:41-0700
; FORMAT={-:-/ absolute / inch / decimal}
; #@! TF.CreationDate,2024-08-30T00:40:41-07:00
; #@! TF.GenerationSoftware,Kicad,Pcbnew,8.0.4
; #@! TF.FileFunction,Plated,1,4,PTH
FMAT,2
INCH
; #@! TA.AperFunction,Plated,PTH,ViaDrill
T1C0.0100
; #@! TA.AperFunction,Plated,PTH,ComponentDrill
T2C0.0394
%
G90
G05
T1
X4.1575Y-3.689
X4.1575Y-3.7677
X4.1575Y-3.8465
X4.2362Y-3.689
X4.2362Y-3.7677
X4.2362Y-3.8465
X4.315Y-2.9016
X4.315Y-3.6102
X4.315Y-3.689
X4.3937Y-2.9016
X4.3937Y-3.6102
X4.3937Y-3.689
X4.4724Y-3.6102
X4.4724Y-3.689
X4.4724Y-3.7677
X4.4724Y-3.8465
X4.5512Y-3.689
X4.5827Y-2.8858
X4.6378Y-2.9939
X4.815Y-2.874
X4.815Y-3.0157
X4.815Y-3.2598
X4.815Y-3.5
X4.815Y-3.6457
X4.8661Y-2.9016
X4.9449Y-2.9016
X4.9449Y-3.6102
X5.0433Y-2.8898
X5.0433Y-3.0315
X5.1024Y-2.9016
X5.1024Y-2.9803
X5.1024Y-3.0591
X5.1024Y-3.1378
X5.1024Y-3.2165
T2
X4.1441Y-2.9606
X4.1441Y-3.0606
X4.1441Y-3.1606
X4.1441Y-3.2606
X4.1441Y-3.3606
X4.1441Y-3.4606
X4.1441Y-3.5606
X4.2441Y-2.9606
X4.2441Y-3.0606
X4.2441Y-3.1606
X4.2441Y-3.2606
X4.2441Y-3.3606
X4.2441Y-3.4606
X4.2441Y-3.5606
X4.3504Y-3.7874
X4.3504Y-3.8874
X4.6063Y-3.7874
X4.6063Y-3.8874
X4.7063Y-3.7874
X4.7063Y-3.8874
X4.8063Y-3.7874
X4.8063Y-3.8874
X4.9063Y-3.7874
X4.9063Y-3.8874
X5.0063Y-3.7874
X5.0063Y-3.8874
X5.1063Y-3.7874
X5.1063Y-3.8874
M30
